<svg width="16" height="16" viewBox="0 0 16 16" fill="none" xmlns="http://www.w3.org/2000/svg">
<g clip-path="url(#clip0_5_17)">
<rect width="16" height="16" fill="#101014"/>
<path d="M2 10.7098L3.01545 12.3683C3.11639 12.5582 3.27122 12.7179 3.46263 12.8295C3.65404 12.941 3.8745 13.0001 4.09938 13H10.8391L9.4411 10.7098H2ZM13.8028 10.0982L9.87798 3.60938C9.77468 3.42534 9.6203 3.27137 9.43141 3.16401C9.24252 3.05665 9.02626 2.99995 8.80586 3H6.71829L12.7944 12.9911L13.7556 11.4174C13.8004 11.346 14.2515 10.7545 13.8028 10.0982ZM8.44691 9.08259L5.71937 4.6183L2.99183 9.08259H8.44691Z" fill="#13AFF0"/>
</g>
<defs>
<clipPath id="clip0_5_17">
<rect width="16" height="16" rx="4" fill="white"/>
</clipPath>
</defs>
</svg>
