<svg width="20" height="18" viewBox="0 0 20 18" fill="none" xmlns="http://www.w3.org/2000/svg">
<g clip-path="url(#clip0_65_4)">
<path d="M1.51203 15.4088L2.39406 16.9415C2.57734 17.2643 2.84078 17.5179 3.15008 17.7023C4.03596 16.5709 4.65263 15.7026 5.00008 15.0976C5.35268 14.4836 5.78604 13.5232 6.30016 12.2164C4.91453 12.0329 3.86453 11.9412 3.15016 11.9412C2.46448 11.9412 1.41443 12.0329 0 12.2164C0 12.5737 0.0916406 12.9309 0.274922 13.2537L1.51203 15.4088Z" fill="#0066DA"/>
<path d="M16.8501 17.7023C17.1595 17.5179 17.4229 17.2643 17.6061 16.9416L17.9727 16.3078L19.7253 13.2537C19.9052 12.9379 19.9999 12.5804 20.0002 12.2164C18.5775 12.0329 17.5294 11.9412 16.8559 11.9412C16.132 11.9412 15.0838 12.0329 13.7115 12.2164C14.2195 13.5304 14.6472 14.4908 14.9945 15.0976C15.3447 15.7098 15.9632 16.578 16.8501 17.7023Z" fill="#EA4335"/>
<path d="M10.0001 5.76244C11.0251 4.51695 11.7315 3.55656 12.1192 2.88126C12.4315 2.33748 12.7752 1.46927 13.1502 0.276603C12.8409 0.0922009 12.4858 0 12.1192 0H7.88094C7.51437 0 7.15937 0.103755 6.85 0.276603C7.32708 1.64445 7.73187 2.61791 8.06437 3.197C8.43187 3.83699 9.07711 4.69213 10.0001 5.76244Z" fill="#00832D"/>
<path d="M13.7 12.2164H6.30015L3.15015 17.7023C3.45937 17.8867 3.81445 17.9789 4.18101 17.9789H15.8191C16.1857 17.9789 16.5409 17.8751 16.8501 17.7022L13.7 12.2164Z" fill="#2684FC"/>
<path d="M10.0001 5.76243L6.85008 0.276672C6.5407 0.461074 6.27727 0.714568 6.09398 1.03731L0.274922 11.1792C0.0950199 11.4949 0.000248555 11.8525 0 12.2164H6.30016L10.0001 5.76243Z" fill="#00AC47"/>
<path d="M16.8158 6.10822L13.9062 1.03725C13.723 0.714507 13.4595 0.461013 13.1502 0.276611L10.0002 5.76245L13.7 12.2164H19.9887C19.9887 11.8591 19.8971 11.5019 19.7138 11.1792L16.8158 6.10822Z" fill="#FFBA00"/>
</g>
<defs>
<clipPath id="clip0_65_4">
<rect width="20" height="18" fill="white"/>
</clipPath>
</defs>
</svg>
