<svg width="40" height="40" viewBox="0 0 40 40" fill="none" xmlns="http://www.w3.org/2000/svg">
<path d="M36.978 19.49C36.9752 24.1277 35.1306 28.5745 31.8497 31.8524C28.5689 35.1303 24.1205 36.9709 19.4827 36.9695C14.845 36.9681 10.3977 35.1248 7.11883 31.8449C3.83996 28.5651 1.99799 24.1172 1.99799 19.4795C1.99799 14.8418 3.83996 10.3939 7.11883 7.11406C10.3977 3.8342 14.845 1.99089 19.4827 1.9895C24.1205 1.98811 28.5689 3.82875 31.8497 7.10664C35.1306 10.3845 36.9752 14.8313 36.978 19.469" fill="black"/>
<path d="M17.209 32.937L20.619 29.527L14.052 22.96C13.776 22.684 13.476 22.338 13.315 21.946C12.946 21.163 12.785 19.942 13.684 19.043C14.79 17.937 16.264 18.398 17.693 19.827L24.006 26.14L27.416 22.73L20.826 16.14C20.55 15.864 20.227 15.449 20.066 15.103C19.628 14.205 19.651 13.076 20.458 12.269C21.587 11.14 23.061 11.555 24.698 13.191L30.826 19.32L34.236 15.91L27.6 9.27402C24.236 5.91002 21.08 6.02502 18.914 8.19102C18.084 9.02102 17.577 9.89602 17.324 10.887C17.0952 11.8067 17.0639 12.7644 17.232 13.697L17.186 13.744C15.526 13.053 13.637 13.467 12.186 14.919C10.25 16.854 10.32 18.905 10.55 20.103L10.48 20.173L8.799 18.813L5.849 21.762C6.886 22.707 8.131 23.859 9.536 25.264L17.209 32.937Z" fill="#F2F2F2"/>
<path d="M19.982 8.12464e-06C16.0272 0.0035675 12.1621 1.17957 8.87551 3.37936C5.5889 5.57915 3.02825 8.70397 1.51726 12.3588C0.00626421 16.0136 -0.387235 20.0344 0.386501 23.9128C1.16024 27.7913 3.06647 31.3532 5.86424 34.1485C8.662 36.9437 12.2257 38.8468 16.1048 39.617C19.9839 40.3873 24.0044 39.9901 27.6578 38.4759C31.3113 36.9616 34.4338 34.3981 36.6306 31.1095C38.8275 27.8209 40 23.9549 40 20V19.976C39.9936 14.6727 37.8812 9.58908 34.1273 5.84302C30.3734 2.09697 25.2853 -0.00476866 19.982 8.12464e-06ZM19.891 4.27401C24.0449 4.27029 28.0303 5.9166 30.9705 8.85087C33.9108 11.7851 35.5652 15.7671 35.57 19.921V19.939C35.57 23.0366 34.6516 26.0647 32.931 28.6405C31.2104 31.2162 28.7647 33.2241 25.9032 34.4101C23.0417 35.5962 19.8927 35.9073 16.8544 35.3041C13.8161 34.7009 11.0249 33.2104 8.83348 31.0211C6.6421 28.8318 5.14897 26.042 4.54284 23.0043C3.93671 19.9666 4.24479 16.8173 5.42814 13.9547C6.61148 11.092 8.61697 8.64442 11.1911 6.92133C13.7652 5.19823 16.7924 4.27697 19.89 4.27401H19.891Z" fill="#FFBD3F"/>
</svg>
