<svg width="24" height="24" viewBox="0 0 24 24" fill="none" xmlns="http://www.w3.org/2000/svg">
<path d="M21 3H14.25M21 3V9.75M21 3L12.75 11.25M9.4 3C7.16 3 6.04 3 5.184 3.436C4.43139 3.81949 3.81949 4.43139 3.436 5.184C3 6.04 3 7.16 3 9.4V14.6C3 16.84 3 17.96 3.436 18.816C3.81949 19.5686 4.43139 20.1805 5.184 20.564C6.04 21 7.16 21 9.4 21H14.6C16.84 21 17.96 21 18.816 20.564C19.5686 20.1805 20.1805 19.5686 20.564 18.816C21 17.96 21 16.84 21 14.6V13.5" stroke="#EEEEF1" stroke-width="1.5" stroke-linecap="round" stroke-linejoin="round"/>
</svg>
