<svg width="32" height="32" viewBox="0 0 32 32" fill="none" xmlns="http://www.w3.org/2000/svg">
<rect width="32" height="32" rx="5" fill="#101014"/>
<path d="M8.94581 24.864C8.97781 24.848 9.00181 24.824 9.01781 24.792C9.04981 24.776 9.08181 24.76 9.11381 24.744C9.03381 24.616 8.93781 24.56 8.82581 24.576H8.29781C8.23381 24.56 8.16181 24.56 8.08181 24.576C8.01781 24.592 7.95381 24.584 7.88981 24.552C7.87381 24.536 7.84981 24.52 7.81781 24.504C7.78581 24.504 7.75381 24.496 7.72181 24.48L7.60181 24.456C7.44181 24.488 7.29781 24.464 7.16981 24.384C7.26581 24.368 7.36181 24.36 7.45781 24.36C7.56981 24.36 7.68181 24.36 7.79381 24.36C7.85781 24.344 7.91381 24.328 7.96181 24.312C8.00981 24.296 8.03381 24.24 8.03381 24.144H8.39381C8.44181 24.128 8.48981 24.112 8.53781 24.096C8.58581 24.08 8.64181 24.064 8.70581 24.048C8.78581 24.048 8.81781 23.992 8.80181 23.88C8.73781 23.88 8.67381 23.88 8.60981 23.88C8.54581 23.864 8.48981 23.824 8.44181 23.76C8.44181 23.76 8.41781 23.76 8.36981 23.76C8.33781 23.76 8.31381 23.776 8.29781 23.808C8.23381 23.872 8.15381 23.904 8.05781 23.904C7.97781 23.888 7.89781 23.88 7.81781 23.88C7.76981 23.864 7.72181 23.864 7.67381 23.88C7.62581 23.88 7.57781 23.88 7.52981 23.88C7.46581 23.912 7.38581 23.944 7.28981 23.976C7.20981 23.976 7.15381 23.968 7.12181 23.952C7.07381 23.888 6.99381 23.88 6.88181 23.928C6.81781 23.832 6.76981 23.776 6.73781 23.76C6.72181 23.744 6.66581 23.744 6.56981 23.76C6.42581 23.808 6.28981 23.824 6.16181 23.808C6.12981 23.776 6.08181 23.768 6.01781 23.784C5.96981 23.8 5.92181 23.816 5.87381 23.832C5.90581 23.896 5.96181 23.92 6.04181 23.904C6.13781 23.888 6.18581 23.936 6.18581 24.048C6.18581 24.048 6.17781 24.048 6.16181 24.048C6.16181 24.064 6.15381 24.072 6.13781 24.072C5.97781 24.056 5.80981 24.048 5.63381 24.048C5.47381 24.048 5.30581 24.048 5.12981 24.048C5.03381 24.032 4.93781 24.016 4.84181 24C4.76181 23.968 4.67381 23.944 4.57781 23.928C4.56181 23.928 4.54581 23.92 4.52981 23.904C4.52981 23.888 4.52181 23.88 4.50581 23.88C4.39381 23.8 4.30581 23.76 4.24181 23.76C4.19381 23.76 4.12181 23.792 4.02581 23.856C3.83381 23.76 3.65781 23.648 3.49781 23.52C3.33781 23.376 3.17781 23.24 3.01781 23.112C2.98581 23.08 2.95381 23.04 2.92181 22.992C2.88981 22.944 2.84981 22.912 2.80181 22.896C2.73781 22.848 2.70581 22.792 2.70581 22.728C2.68981 22.664 2.68981 22.6 2.70581 22.536C2.73781 22.472 2.71381 22.424 2.63381 22.392C2.53781 22.312 2.47381 22.224 2.44181 22.128C2.39381 22.016 2.35381 21.904 2.32181 21.792C2.30581 21.744 2.28981 21.704 2.27381 21.672C2.24181 21.624 2.21781 21.576 2.20181 21.528V21.312C2.20181 21.216 2.25781 21.2 2.36981 21.264C2.49781 21.28 2.61781 21.336 2.72981 21.432C2.82581 21.512 2.92981 21.6 3.04181 21.696C3.08981 21.712 3.11381 21.784 3.11381 21.912C3.12981 22.024 3.20181 22.104 3.32981 22.152C3.36181 22.152 3.40181 22.176 3.44981 22.224C3.64181 22.352 3.84181 22.424 4.04981 22.44C4.19381 22.472 4.33781 22.512 4.48181 22.56C4.62581 22.592 4.76981 22.616 4.91381 22.632C4.99381 22.648 5.06581 22.68 5.12981 22.728C5.19381 22.76 5.26581 22.768 5.34581 22.752L5.12981 22.944C5.17781 23.04 5.24181 23.088 5.32181 23.088C5.40181 23.072 5.48181 23.064 5.56181 23.064C5.54581 23.128 5.53781 23.192 5.53781 23.256C5.53781 23.32 5.52181 23.384 5.48981 23.448C5.47381 23.544 5.40181 23.576 5.27381 23.544C5.22581 23.512 5.18581 23.504 5.15381 23.52C5.12181 23.52 5.08181 23.52 5.03381 23.52C4.92181 23.52 4.84981 23.504 4.81781 23.472C4.64181 23.424 4.48181 23.44 4.33781 23.52L4.36181 23.544C4.44181 23.56 4.52181 23.584 4.60181 23.616C4.68181 23.632 4.76181 23.64 4.84181 23.64H5.05781C5.26581 23.736 5.48981 23.76 5.72981 23.712C5.85781 23.68 5.99381 23.664 6.13781 23.664C6.28181 23.648 6.43381 23.632 6.59381 23.616C6.64181 23.616 6.68981 23.624 6.73781 23.64C6.78581 23.64 6.83381 23.664 6.88181 23.712C6.88181 23.744 6.92181 23.76 7.00181 23.76C7.00181 23.76 7.00981 23.752 7.02581 23.736C7.04181 23.704 7.04981 23.672 7.04981 23.64V23.568C7.38581 23.568 7.72981 23.52 8.08181 23.424C8.16181 23.392 8.23381 23.352 8.29781 23.304C8.37781 23.24 8.44981 23.184 8.51381 23.136C8.48181 22.976 8.44981 22.896 8.41781 22.896C8.38581 22.896 8.31381 22.936 8.20181 23.016C8.08981 22.856 7.92981 22.824 7.72181 22.92C7.57781 22.984 7.44181 23.024 7.31381 23.04C7.26581 23.04 7.20981 23.04 7.14581 23.04C7.09781 23.024 7.04981 23.016 7.00181 23.016C6.98581 22.936 7.01781 22.88 7.09781 22.848C7.17781 22.8 7.17781 22.736 7.09781 22.656C7.14581 22.624 7.18581 22.6 7.21781 22.584C7.26581 22.568 7.32181 22.552 7.38581 22.536C7.44981 22.536 7.51381 22.536 7.57781 22.536C7.65781 22.536 7.72981 22.504 7.79381 22.44C7.69781 22.36 7.60181 22.344 7.50581 22.392C7.42581 22.44 7.34581 22.456 7.26581 22.44C7.26581 22.344 7.23381 22.264 7.16981 22.2C7.26581 22.168 7.35381 22.152 7.43381 22.152C7.51381 22.136 7.59381 22.12 7.67381 22.104C7.84981 22.056 8.03381 22.008 8.22581 21.96C8.43381 21.896 8.64181 21.824 8.84981 21.744C9.08981 21.696 9.27381 21.584 9.40181 21.408L9.54581 21.312C9.73781 21.296 9.80981 21.2 9.76181 21.024C9.76181 20.912 9.80981 20.832 9.90581 20.784C10.0338 20.704 10.1538 20.616 10.2658 20.52C10.3778 20.424 10.4978 20.344 10.6258 20.28C10.7058 20.232 10.7618 20.168 10.7938 20.088C10.8258 19.992 10.8498 19.912 10.8658 19.848C10.8978 19.784 10.9138 19.696 10.9138 19.584C10.8658 19.568 10.8098 19.544 10.7458 19.512C10.6978 19.464 10.6338 19.456 10.5538 19.488C10.4738 19.488 10.3778 19.448 10.2658 19.368C10.1058 19.272 9.95381 19.176 9.80981 19.08C9.66581 18.984 9.51381 18.88 9.35381 18.768C9.28981 18.736 9.22581 18.704 9.16181 18.672C9.09781 18.64 9.02581 18.608 8.94581 18.576C8.67381 18.432 8.42581 18.232 8.20181 17.976C7.96181 17.816 7.73781 17.624 7.52981 17.4C7.46581 17.304 7.38581 17.216 7.28981 17.136C7.20981 17.04 7.12981 16.96 7.04981 16.896C7.01781 16.864 6.98581 16.832 6.95381 16.8C6.92181 16.752 6.88981 16.704 6.85781 16.656C6.77781 16.528 6.69781 16.4 6.61781 16.272C6.53781 16.128 6.43381 16 6.30581 15.888C6.27381 15.84 6.24981 15.792 6.23381 15.744C6.21781 15.696 6.22581 15.64 6.25781 15.576C6.14581 15.544 6.06581 15.488 6.01781 15.408C5.96981 15.312 5.92181 15.232 5.87381 15.168C5.85781 15.12 5.83381 15.072 5.80181 15.024C5.78581 14.976 5.76181 14.928 5.72981 14.88C5.63381 14.784 5.60981 14.688 5.65781 14.592C5.67381 14.624 5.68981 14.664 5.70581 14.712C5.73781 14.744 5.76181 14.776 5.77781 14.808C5.85781 14.808 5.92981 14.824 5.99381 14.856C5.99381 14.808 5.98581 14.76 5.96981 14.712C5.96981 14.664 5.96981 14.616 5.96981 14.568C5.95381 14.52 5.94581 14.432 5.94581 14.304V13.992C5.96181 13.832 5.97781 13.672 5.99381 13.512C6.00981 13.336 6.02581 13.16 6.04181 12.984C6.05781 12.888 6.08181 12.8 6.11381 12.72C6.14581 12.64 6.16981 12.552 6.18581 12.456C6.24981 12.296 6.31381 12.144 6.37781 12C6.44181 11.856 6.50581 11.704 6.56981 11.544L6.78581 11.208C6.81781 11.16 6.84981 11.12 6.88181 11.088C6.92981 11.04 6.96181 10.984 6.97781 10.92C6.99381 10.872 7.01781 10.824 7.04981 10.776C7.09781 10.728 7.13781 10.688 7.16981 10.656C7.26581 10.576 7.35381 10.504 7.43381 10.44C7.52981 10.376 7.62581 10.304 7.72181 10.224C7.76981 10.192 7.81781 10.176 7.86581 10.176C7.92981 10.16 7.98581 10.176 8.03381 10.224C7.84181 10.368 7.72181 10.544 7.67381 10.752L7.69781 10.8C7.72981 10.768 7.76181 10.752 7.79381 10.752C7.82581 10.752 7.84981 10.744 7.86581 10.728C7.89781 10.696 7.92981 10.664 7.96181 10.632C7.99381 10.584 8.01781 10.536 8.03381 10.488C8.06581 10.488 8.08181 10.48 8.08181 10.464C8.09781 10.448 8.10581 10.44 8.10581 10.44C8.16981 10.44 8.20981 10.432 8.22581 10.416C8.32181 10.368 8.40981 10.32 8.48981 10.272C8.58581 10.208 8.68181 10.144 8.77781 10.08L8.72981 10.032C8.63381 10.032 8.57781 10.024 8.56181 10.008C8.54581 9.992 8.52981 9.936 8.51381 9.84C8.49781 9.808 8.47381 9.776 8.44181 9.744C8.42581 9.696 8.40181 9.648 8.36981 9.6L8.48981 9.48C8.29781 9.336 8.30581 9.208 8.51381 9.096C8.46581 9.032 8.40181 9.008 8.32181 9.024C8.27381 9.056 8.23381 9.088 8.20181 9.12C8.16981 9.152 8.12981 9.176 8.08181 9.192C8.06581 9.208 8.04181 9.216 8.00981 9.216C7.97781 9.216 7.94581 9.232 7.91381 9.264C7.94581 9.168 7.98581 9.104 8.03381 9.072C8.12981 8.96 8.23381 8.848 8.34581 8.736C8.45781 8.624 8.56981 8.536 8.68181 8.472C8.80981 8.36 8.93781 8.264 9.06581 8.184C9.20981 8.088 9.35381 7.992 9.49781 7.896C9.57781 7.832 9.65781 7.776 9.73781 7.728C9.81781 7.664 9.88981 7.6 9.95381 7.536C10.0178 7.488 10.0818 7.432 10.1458 7.368C10.2258 7.288 10.2978 7.216 10.3618 7.152C10.3618 7.136 10.3698 7.128 10.3858 7.128C10.4018 7.112 10.4178 7.088 10.4338 7.056C10.3058 7.088 10.1858 7.128 10.0738 7.176C9.96181 7.224 9.84181 7.248 9.71381 7.248C9.74581 7.168 9.78581 7.112 9.83381 7.08L10.2418 6.936C10.3058 6.904 10.3618 6.88 10.4098 6.864C10.4578 6.848 10.5138 6.832 10.5778 6.816C10.7058 6.784 10.8418 6.752 10.9858 6.72C11.1298 6.672 11.2578 6.64 11.3698 6.624C11.4178 6.592 11.4658 6.568 11.5138 6.552C11.5618 6.52 11.6098 6.488 11.6578 6.456C11.7698 6.392 11.8738 6.392 11.9698 6.456C12.0498 6.504 12.1218 6.552 12.1858 6.6C12.2658 6.632 12.3218 6.688 12.3538 6.768C12.6578 6.816 12.9058 6.984 13.0978 7.272C13.0978 7.272 13.0978 7.28 13.0978 7.296C13.0978 7.296 13.1058 7.296 13.1218 7.296L13.5058 7.68C13.6178 7.856 13.7458 8.032 13.8898 8.208C13.9858 8.336 14.0498 8.472 14.0818 8.616C14.1298 8.76 14.1778 8.896 14.2258 9.024C14.3378 9.28 14.3378 9.544 14.2258 9.816C14.2258 9.848 14.2178 9.88 14.2018 9.912C14.2018 9.944 14.2098 9.976 14.2258 10.008C14.2258 10.088 14.2338 10.152 14.2498 10.2C14.2658 10.248 14.2418 10.312 14.1778 10.392C14.1618 10.408 14.1538 10.44 14.1538 10.488C14.1698 10.536 14.1778 10.576 14.1778 10.608H13.9378C13.7938 10.624 13.7698 10.696 13.8658 10.824C13.9298 10.936 13.9058 11.008 13.7938 11.04C13.7298 11.056 13.6978 11.112 13.6978 11.208C13.6978 11.256 13.6818 11.312 13.6498 11.376C13.6338 11.424 13.6178 11.48 13.6018 11.544C13.5858 11.448 13.5618 11.368 13.5298 11.304C13.5138 11.24 13.4978 11.176 13.4818 11.112C13.4818 11.08 13.4658 11.064 13.4338 11.064C13.4178 11.048 13.4018 11.032 13.3858 11.016L13.2898 11.16C13.2738 11.272 13.2578 11.384 13.2418 11.496C13.2258 11.608 13.2098 11.72 13.1938 11.832C13.1778 11.992 13.1618 12.152 13.1458 12.312C13.1458 12.472 13.0898 12.624 12.9778 12.768C12.9138 12.704 12.8818 12.624 12.8818 12.528C12.8978 12.432 12.8898 12.336 12.8578 12.24C12.8098 12.304 12.7698 12.376 12.7378 12.456C12.7058 12.52 12.6658 12.576 12.6178 12.624C12.5858 12.672 12.5458 12.728 12.4978 12.792C12.4498 12.856 12.3778 12.904 12.2818 12.936C12.2658 12.84 12.2578 12.752 12.2578 12.672C12.2578 12.576 12.2418 12.496 12.2098 12.432C12.2098 12.304 12.1858 12.216 12.1378 12.168C12.1218 12.152 12.1058 12.128 12.0898 12.096C12.0898 12.064 12.0818 12.04 12.0658 12.024C12.0658 11.944 12.0578 11.872 12.0418 11.808C11.9938 11.824 11.9378 11.864 11.8738 11.928C11.8738 11.912 11.8658 11.896 11.8498 11.88C11.8498 11.864 11.8498 11.856 11.8498 11.856C11.8498 11.824 11.8498 11.8 11.8498 11.784C11.8658 11.752 11.8738 11.712 11.8738 11.664C11.8258 11.696 11.7618 11.712 11.6818 11.712C11.7458 11.616 11.7858 11.52 11.8018 11.424C11.8338 11.328 11.8178 11.224 11.7538 11.112C11.7378 11.128 11.7218 11.152 11.7058 11.184C11.6898 11.216 11.6818 11.24 11.6818 11.256H11.6578C11.6418 11.192 11.6338 11.128 11.6338 11.064C11.6338 11 11.6178 10.928 11.5858 10.848C11.5218 10.848 11.4658 10.848 11.4178 10.848C11.3698 10.848 11.3138 10.864 11.2498 10.896C10.9298 10.944 10.6578 11.016 10.4338 11.112C10.1298 11.208 9.85781 11.352 9.61781 11.544C9.56981 11.592 9.51381 11.648 9.44981 11.712C9.40181 11.76 9.33781 11.808 9.25781 11.856C9.17781 11.92 9.10581 12.008 9.04181 12.12C8.99381 12.216 8.92981 12.304 8.84981 12.384C8.78581 12.512 8.70581 12.64 8.60981 12.768C8.52981 12.896 8.44981 13.024 8.36981 13.152C8.27381 13.264 8.20981 13.312 8.17781 13.296C8.16181 13.28 8.13781 13.344 8.10581 13.488C8.08981 13.552 8.09781 13.632 8.12981 13.728C8.16181 13.824 8.18581 13.92 8.20181 14.016C8.28181 14.176 8.35381 14.344 8.41781 14.52C8.49781 14.68 8.59381 14.84 8.70581 15C8.89781 15.224 9.08981 15.448 9.28181 15.672C9.48981 15.88 9.70581 16.072 9.92981 16.248C10.0898 16.376 10.2498 16.504 10.4098 16.632C10.5858 16.744 10.7538 16.864 10.9138 16.992C11.0738 17.088 11.2258 17.184 11.3698 17.28C11.5298 17.376 11.6898 17.472 11.8498 17.568L12.7858 18.192C12.8178 18.208 12.8658 18.264 12.9298 18.36C12.9618 18.424 13.0018 18.48 13.0498 18.528C13.1138 18.576 13.1778 18.624 13.2418 18.672C13.4338 18.768 13.5938 18.888 13.7218 19.032C13.8658 19.176 13.9938 19.336 14.1058 19.512C14.2018 19.656 14.2738 19.808 14.3218 19.968C14.3858 20.128 14.4738 20.272 14.5858 20.4C14.6018 20.416 14.6018 20.448 14.5858 20.496C14.5858 20.544 14.5938 20.592 14.6098 20.64C14.6418 20.64 14.6658 20.648 14.6818 20.664C14.7138 20.68 14.7538 20.688 14.8018 20.688C14.8018 20.752 14.7938 20.848 14.7778 20.976C14.7778 21.104 14.7458 21.336 14.6818 21.672C14.6498 21.688 14.6178 21.712 14.5858 21.744C14.5538 21.76 14.5218 21.784 14.4898 21.816C14.4898 21.928 14.4978 22.016 14.5138 22.08C14.4498 22.096 14.4098 22.088 14.3938 22.056C14.3938 22.024 14.3778 22 14.3458 21.984C14.3138 21.92 14.2738 21.888 14.2258 21.888C14.0978 21.92 14.0498 21.968 14.0818 22.032C14.0978 22.08 14.0898 22.112 14.0578 22.128C14.0418 22.144 14.0178 22.168 13.9858 22.2C13.8098 22.312 13.6418 22.488 13.4818 22.728C13.4338 22.84 13.3618 22.936 13.2658 23.016C13.1858 23.08 13.0978 23.152 13.0018 23.232C12.9858 23.248 12.9538 23.264 12.9058 23.28C12.8738 23.296 12.8338 23.304 12.7858 23.304C12.5938 23.256 12.4658 23.312 12.4018 23.472C12.4018 23.568 12.3538 23.632 12.2578 23.664C12.2098 23.664 12.1858 23.696 12.1858 23.76C12.1698 23.824 12.1378 23.88 12.0898 23.928C12.0738 23.944 12.0498 23.96 12.0178 23.976C12.0018 23.976 11.9778 23.992 11.9458 24.024H11.8978C11.7858 24.12 11.6658 24.104 11.5378 23.976C11.4738 23.992 11.4178 24 11.3698 24C11.3218 24.016 11.2818 24.032 11.2498 24.048C11.1698 24.08 11.0978 24.112 11.0338 24.144C10.9698 24.192 10.9058 24.232 10.8418 24.264C10.8258 24.28 10.8098 24.296 10.7938 24.312C10.7778 24.344 10.7618 24.36 10.7458 24.36C10.6658 24.344 10.6018 24.352 10.5538 24.384C10.5218 24.432 10.4818 24.464 10.4338 24.48C10.3858 24.512 10.3378 24.528 10.2898 24.528C10.2418 24.528 10.1938 24.528 10.1458 24.528C10.0818 24.592 10.0098 24.624 9.92981 24.624C9.86581 24.64 9.79381 24.656 9.71381 24.672C9.66581 24.688 9.61781 24.704 9.56981 24.72C9.52181 24.736 9.47381 24.752 9.42581 24.768C9.34581 24.784 9.26581 24.8 9.18581 24.816C9.10581 24.848 9.02581 24.864 8.94581 24.864ZM4.00181 22.92C4.06581 22.952 4.10581 22.944 4.12181 22.896C4.04181 22.768 3.91381 22.712 3.73781 22.728C3.73781 22.808 3.76981 22.856 3.83381 22.872C3.89781 22.888 3.95381 22.904 4.00181 22.92ZM5.56181 22.752C5.62581 22.72 5.70581 22.712 5.80181 22.728C5.70581 22.728 5.62581 22.736 5.56181 22.752ZM6.88181 22.248V22.2C6.91381 22.2 6.93781 22.2 6.95381 22.2C6.98581 22.2 7.01781 22.2 7.04981 22.2V22.224C7.01781 22.224 6.98581 22.232 6.95381 22.248C6.93781 22.248 6.91381 22.248 6.88181 22.248ZM10.1458 24.528C10.1778 24.496 10.2098 24.472 10.2418 24.456C10.2898 24.456 10.3138 24.424 10.3138 24.36C10.2338 24.328 10.1778 24.312 10.1458 24.312C10.1298 24.328 10.0898 24.384 10.0258 24.48C10.0898 24.48 10.1298 24.496 10.1458 24.528ZM8.72981 23.136C8.82581 23.12 8.92181 23.104 9.01781 23.088C9.12981 23.072 9.23381 23.032 9.32981 22.968C9.37781 22.968 9.40181 22.944 9.40181 22.896C9.40181 22.864 9.38581 22.84 9.35381 22.824C9.33781 22.792 9.32181 22.768 9.30581 22.752C9.27381 22.752 9.24181 22.76 9.20981 22.776C9.17781 22.792 9.14581 22.8 9.11381 22.8C9.08181 22.8 9.04981 22.808 9.01781 22.824C9.00181 22.824 8.97781 22.824 8.94581 22.824C8.83381 22.808 8.76181 22.824 8.72981 22.872C8.71381 22.904 8.71381 22.992 8.72981 23.136ZM12.2098 23.952C12.1938 23.904 12.1858 23.84 12.1858 23.76C12.1858 23.792 12.2018 23.816 12.2338 23.832C12.2658 23.848 12.2578 23.888 12.2098 23.952ZM12.4738 23.952C12.4738 23.792 12.5458 23.712 12.6898 23.712C12.7058 23.712 12.7138 23.72 12.7138 23.736C12.6978 23.768 12.6658 23.8 12.6178 23.832C12.5698 23.864 12.5218 23.904 12.4738 23.952ZM5.46581 13.704C5.41781 13.624 5.40181 13.544 5.41781 13.464C5.44981 13.384 5.46581 13.296 5.46581 13.2C5.51381 13.28 5.53781 13.352 5.53781 13.416C5.55381 13.48 5.56181 13.544 5.56181 13.608C5.56181 13.624 5.54581 13.64 5.51381 13.656C5.49781 13.672 5.48181 13.688 5.46581 13.704ZM6.06581 11.808C6.04981 11.776 6.03381 11.752 6.01781 11.736C6.00181 11.704 5.98581 11.672 5.96981 11.64C6.01781 11.608 6.06581 11.576 6.11381 11.544C6.16181 11.512 6.21781 11.48 6.28181 11.448C6.24981 11.576 6.21781 11.68 6.18581 11.76C6.18581 11.776 6.16981 11.792 6.13781 11.808C6.10581 11.808 6.08181 11.808 6.06581 11.808ZM6.56981 11.112C6.50581 10.92 6.57781 10.816 6.78581 10.8C6.76981 10.912 6.69781 11.016 6.56981 11.112ZM8.32181 10.176C8.30581 10.128 8.29781 10.104 8.29781 10.104C8.29781 10.088 8.32181 10.08 8.36981 10.08C8.36981 10.08 8.36981 10.088 8.36981 10.104C8.38581 10.104 8.39381 10.104 8.39381 10.104L8.32181 10.176ZM9.25781 9.696C9.33781 9.664 9.40981 9.64 9.47381 9.624C9.53781 9.592 9.58581 9.528 9.61781 9.432C9.50581 9.4 9.43381 9.408 9.40181 9.456C9.38581 9.488 9.33781 9.568 9.25781 9.696ZM9.04181 9.504C9.15381 9.488 9.24981 9.424 9.32981 9.312C9.39381 9.216 9.48181 9.208 9.59381 9.288C9.62581 9.32 9.66581 9.344 9.71381 9.36C9.76181 9.376 9.80981 9.4 9.85781 9.432C9.93781 9.368 10.0098 9.304 10.0738 9.24C10.1538 9.16 10.2418 9.112 10.3378 9.096C10.4338 9.064 10.4818 9 10.4818 8.904C10.5298 8.856 10.5538 8.784 10.5538 8.688C10.5378 8.656 10.5138 8.632 10.4818 8.616C10.4658 8.584 10.4498 8.552 10.4338 8.52C10.5138 8.392 10.5938 8.36 10.6738 8.424C10.7698 8.472 10.8578 8.496 10.9378 8.496C10.9538 8.448 10.9698 8.4 10.9858 8.352C11.0018 8.304 11.0258 8.248 11.0578 8.184C11.0098 8.184 10.9698 8.184 10.9378 8.184C10.9058 8.168 10.8738 8.168 10.8418 8.184C10.7618 8.2 10.6818 8.224 10.6018 8.256C10.5218 8.272 10.4418 8.288 10.3618 8.304C10.2978 8.32 10.2498 8.344 10.2178 8.376C10.1858 8.408 10.1698 8.472 10.1698 8.568C10.2658 8.632 10.3138 8.688 10.3138 8.736C10.3298 8.768 10.2978 8.824 10.2178 8.904C10.1858 8.872 10.1538 8.824 10.1218 8.76L9.85781 9.024C9.80981 8.976 9.73781 8.96 9.64181 8.976C9.56181 8.992 9.51381 8.936 9.49781 8.808C9.35381 8.84 9.22581 8.888 9.11381 8.952C9.00181 9 8.90581 9.08 8.82581 9.192C8.80981 9.224 8.78581 9.256 8.75381 9.288C8.73781 9.304 8.71381 9.328 8.68181 9.36C8.79381 9.424 8.88181 9.408 8.94581 9.312C8.97781 9.296 9.00981 9.272 9.04181 9.24C9.08981 9.208 9.13781 9.184 9.18581 9.168C9.23381 9.248 9.21781 9.288 9.13781 9.288C9.04181 9.304 9.00981 9.376 9.04181 9.504ZM10.5778 9.024H10.7218C10.6898 9.008 10.6738 8.992 10.6738 8.976C10.6578 8.992 10.6258 9 10.5778 9C10.5778 9 10.5778 9.008 10.5778 9.024ZM9.18581 7.464C9.26581 7.352 9.31381 7.296 9.32981 7.296C9.36181 7.28 9.41781 7.296 9.49781 7.344C9.44981 7.36 9.40181 7.384 9.35381 7.416C9.30581 7.432 9.24981 7.448 9.18581 7.464ZM27.1963 25.008C27.1003 24.928 27.0443 24.88 27.0283 24.864C26.9803 24.864 26.9483 24.856 26.9323 24.84C26.9163 24.824 26.8923 24.816 26.8603 24.816C26.8283 24.784 26.7883 24.752 26.7403 24.72C26.6923 24.704 26.6603 24.68 26.6443 24.648C26.5483 24.6 26.4603 24.528 26.3803 24.432C26.3003 24.336 26.2203 24.256 26.1403 24.192C26.1243 24.144 26.1003 24.088 26.0683 24.024C26.0363 23.976 26.0203 23.912 26.0203 23.832C26.0203 23.816 26.0043 23.8 25.9723 23.784C25.9563 23.752 25.9323 23.728 25.9003 23.712C25.8523 23.696 25.7963 23.656 25.7323 23.592C25.7483 23.592 25.7243 23.56 25.6603 23.496C25.6603 23.464 25.6443 23.432 25.6123 23.4C25.5963 23.352 25.5883 23.312 25.5883 23.28C25.5723 23.28 25.5643 23.28 25.5643 23.28C25.5643 23.264 25.5643 23.256 25.5643 23.256C25.6123 23.224 25.6203 23.192 25.5883 23.16C25.5723 23.128 25.5723 23.104 25.5883 23.088C25.5883 23.04 25.5803 23.016 25.5643 23.016C25.5643 23 25.5643 22.992 25.5643 22.992C25.4203 22.96 25.3483 22.856 25.3483 22.68C25.3323 22.648 25.3323 22.624 25.3483 22.608C25.3643 22.592 25.3803 22.6 25.3963 22.632C25.4443 22.632 25.4763 22.584 25.4923 22.488C25.4283 22.456 25.3563 22.424 25.2763 22.392C25.2123 22.344 25.1403 22.312 25.0603 22.296C25.0923 22.28 25.1243 22.272 25.1563 22.272C25.1723 22.272 25.1963 22.264 25.2283 22.248C25.2763 22.232 25.3163 22.224 25.3483 22.224C25.3803 22.224 25.4043 22.232 25.4203 22.248C25.4363 22.264 25.4603 22.272 25.4923 22.272L25.7323 22.296C25.7963 22.296 25.8523 22.288 25.9003 22.272H25.9483C25.9803 22.304 26.0123 22.312 26.0443 22.296C26.0923 22.264 26.1483 22.24 26.2123 22.224C26.2603 22.24 26.2923 22.24 26.3083 22.224C26.3243 22.208 26.3403 22.2 26.3563 22.2C26.3403 22.12 26.3323 22.064 26.3323 22.032C26.3323 21.984 26.3243 21.952 26.3083 21.936C26.2443 21.872 26.2123 21.816 26.2123 21.768C26.1963 21.736 26.1883 21.712 26.1883 21.696C26.1883 21.664 26.1883 21.648 26.1883 21.648C26.1883 21.568 26.1883 21.504 26.1883 21.456C26.2043 21.408 26.2123 21.36 26.2123 21.312C26.1803 21.184 26.1643 21.072 26.1643 20.976C26.1803 20.88 26.1963 20.768 26.2123 20.64C26.1963 20.656 26.1803 20.672 26.1643 20.688C26.1483 20.704 26.1243 20.728 26.0923 20.76C26.0763 20.776 26.0683 20.808 26.0683 20.856C26.0683 20.904 26.0523 20.944 26.0203 20.976V20.928C26.0203 20.864 26.0203 20.808 26.0203 20.76C26.0363 20.696 26.0203 20.648 25.9723 20.616C26.0203 20.536 26.0283 20.488 25.9963 20.472C25.9643 20.456 25.9323 20.44 25.9003 20.424C25.8523 20.376 25.8283 20.336 25.8283 20.304C25.8283 20.256 25.8283 20.2 25.8283 20.136C25.8123 20.104 25.8043 20.064 25.8043 20.016C25.8043 19.936 25.8123 19.888 25.8283 19.872C25.8283 19.792 25.8123 19.752 25.7803 19.752C25.7803 19.704 25.7723 19.672 25.7563 19.656C25.7403 19.624 25.7323 19.584 25.7323 19.536L25.7803 19.512C25.8123 19.512 25.8283 19.496 25.8283 19.464C25.8603 19.464 25.8763 19.448 25.8763 19.416C25.8763 19.384 25.8603 19.368 25.8283 19.368C25.8123 19.272 25.8363 19.184 25.9003 19.104H25.9483C25.9323 18.976 25.9003 18.864 25.8523 18.768C25.8203 18.656 25.7963 18.552 25.7803 18.456C25.7323 18.488 25.7083 18.456 25.7083 18.36C25.7083 18.36 25.6923 18.352 25.6603 18.336C25.6443 18.32 25.6203 18.312 25.5883 18.312C25.5723 18.28 25.5563 18.256 25.5403 18.24C25.5243 18.224 25.5163 18.2 25.5163 18.168C25.5163 18.136 25.5083 18.104 25.4923 18.072C25.4923 18.04 25.4923 17.992 25.4923 17.928C25.5243 17.896 25.5563 17.936 25.5883 18.048C25.5883 18.096 25.6283 18.12 25.7083 18.12C25.7243 18.12 25.7403 18.128 25.7563 18.144C25.7723 18.16 25.7883 18.168 25.8043 18.168C25.8843 18.136 25.9323 18.072 25.9483 17.976C25.9643 17.88 25.9723 17.776 25.9723 17.664V17.256C25.9723 17.192 25.9643 17.128 25.9483 17.064C25.9483 16.984 25.9483 16.912 25.9483 16.848V16.536C25.9483 16.472 25.9323 16.424 25.9003 16.392C25.8683 16.36 25.8443 16.32 25.8283 16.272C25.8283 16.224 25.8123 16.192 25.7803 16.176C25.7803 16.176 25.7723 16.16 25.7563 16.128C25.7403 16.08 25.7323 16.048 25.7323 16.032C25.7323 15.968 25.7083 15.912 25.6603 15.864H25.5883C25.5243 15.784 25.4843 15.808 25.4683 15.936C25.4683 15.984 25.4523 16.008 25.4203 16.008V15.936C25.4043 15.824 25.3963 15.728 25.3963 15.648C25.3963 15.568 25.3963 15.48 25.3963 15.384C25.3963 15.304 25.3803 15.256 25.3483 15.24C25.3323 15.224 25.3083 15.216 25.2763 15.216C25.1963 15.216 25.1163 15.24 25.0363 15.288C24.9723 15.32 24.9003 15.376 24.8203 15.456H24.7963V15.312C24.7003 15.312 24.6123 15.328 24.5323 15.36C24.4523 15.392 24.3803 15.424 24.3163 15.456C24.2363 15.472 24.1563 15.48 24.0763 15.48C23.9963 15.48 23.9163 15.496 23.8363 15.528C23.7723 15.544 23.7083 15.56 23.6443 15.576C23.5963 15.592 23.5483 15.616 23.5003 15.648C23.4843 15.648 23.4683 15.656 23.4523 15.672C23.4523 15.688 23.4443 15.704 23.4283 15.72L23.4043 15.768C23.3403 15.736 23.2763 15.736 23.2123 15.768C23.1643 15.784 23.1083 15.784 23.0443 15.768H22.9963C22.9323 15.848 22.8603 15.896 22.7803 15.912C22.7163 15.928 22.6523 15.952 22.5883 15.984V15.768C22.5243 15.816 22.4683 15.848 22.4203 15.864C22.3883 15.88 22.3563 15.904 22.3243 15.936C22.2283 15.984 22.1403 16.008 22.0603 16.008C22.0603 16.024 22.0523 16.032 22.0363 16.032C22.0203 16.032 22.0123 16.032 22.0123 16.032C21.9963 16.064 21.9643 16.08 21.9163 16.08C21.8523 16.08 21.7883 16.08 21.7243 16.08C21.6763 16.064 21.6203 16.072 21.5563 16.104V16.176C21.4763 16.176 21.4043 16.192 21.3403 16.224C21.2763 16.256 21.2123 16.288 21.1483 16.32C21.0523 16.368 20.9563 16.392 20.8603 16.392H20.7643C20.6683 16.424 20.6043 16.488 20.5723 16.584V16.824C20.5243 16.872 20.5003 16.928 20.5003 16.992C20.5163 17.04 20.5243 17.088 20.5243 17.136V17.376C20.5243 17.392 20.5163 17.416 20.5003 17.448C20.4843 17.464 20.4683 17.488 20.4523 17.52V17.208C20.4043 17.208 20.3483 17.216 20.2843 17.232C20.2363 17.248 20.1963 17.256 20.1643 17.256C20.1483 17.224 20.1323 17.2 20.1163 17.184C20.1163 17.152 20.1563 17.104 20.2363 17.04V17.064C20.2363 17.064 20.2363 17.08 20.2363 17.112C20.2523 17.128 20.2843 17.152 20.3323 17.184C20.3323 17.168 20.3563 17.128 20.4043 17.064C20.4043 17.032 20.4123 16.984 20.4283 16.92C20.4603 16.856 20.4763 16.816 20.4763 16.8V16.512C20.4763 16.512 20.4683 16.504 20.4523 16.488C20.4523 16.456 20.4363 16.44 20.4043 16.44H20.1163C20.0843 16.44 20.0683 16.472 20.0683 16.536C20.0523 16.68 20.0443 16.824 20.0443 16.968C20.0443 17.112 20.0283 17.248 19.9963 17.376C19.9963 17.488 19.9883 17.6 19.9723 17.712C19.9723 17.808 19.9723 17.92 19.9723 18.048C19.9723 18.176 19.9563 18.304 19.9243 18.432C19.8923 18.544 19.8763 18.664 19.8763 18.792C19.8763 18.824 19.8683 18.848 19.8523 18.864C19.8363 18.88 19.8283 18.904 19.8283 18.936C19.7643 18.952 19.7643 19.008 19.8283 19.104C19.7483 19.104 19.7083 19.144 19.7083 19.224C19.7083 19.224 19.7083 19.232 19.7083 19.248C19.7243 19.248 19.7403 19.248 19.7563 19.248C19.8203 19.248 19.8363 19.288 19.8043 19.368C19.8043 19.384 19.7963 19.4 19.7803 19.416C19.7643 19.416 19.7563 19.432 19.7563 19.464C19.7883 19.528 19.7883 19.584 19.7563 19.632C19.7243 19.664 19.6923 19.704 19.6603 19.752C19.5803 19.928 19.5963 20.096 19.7083 20.256C19.6443 20.256 19.5803 20.312 19.5163 20.424C19.5163 20.488 19.5083 20.552 19.4923 20.616C19.4763 20.664 19.4603 20.728 19.4443 20.808C19.4123 20.872 19.4203 20.912 19.4683 20.928C19.5003 20.928 19.5243 20.944 19.5403 20.976C19.5563 20.992 19.5483 21.016 19.5163 21.048C19.5163 21.08 19.5083 21.12 19.4923 21.168C19.4763 21.2 19.4683 21.232 19.4683 21.264L19.5163 21.312C19.5803 21.312 19.6123 21.296 19.6123 21.264C19.6123 21.232 19.6203 21.2 19.6363 21.168C19.6523 21.12 19.6603 21.08 19.6603 21.048C19.6603 21.032 19.6683 21.016 19.6843 21C19.7003 20.984 19.7083 20.976 19.7083 20.976V21.456C19.7083 21.552 19.7083 21.608 19.7083 21.624C19.7243 21.64 19.7563 21.664 19.8043 21.696C19.7563 21.744 19.7403 21.8 19.7563 21.864C19.7723 21.928 19.7883 21.984 19.8043 22.032H19.7083V22.128C19.7083 22.176 19.7003 22.232 19.6843 22.296C19.6843 22.344 19.6923 22.384 19.7083 22.416C19.6923 22.448 19.6603 22.44 19.6123 22.392C19.5803 22.344 19.5483 22.304 19.5163 22.272C19.5003 22.192 19.4843 22.12 19.4683 22.056C19.4523 21.976 19.4283 21.904 19.3963 21.84H19.2763C19.2763 21.904 19.2843 21.936 19.3003 21.936C19.3003 21.984 19.3163 22.032 19.3483 22.08C19.3803 22.128 19.3963 22.168 19.3963 22.2V22.344V22.584C19.4283 22.584 19.4443 22.592 19.4443 22.608C19.4443 22.624 19.4443 22.632 19.4443 22.632V22.68C19.4443 22.648 19.4363 22.632 19.4203 22.632C19.4043 22.632 19.3963 22.632 19.3963 22.632C19.3483 22.6 19.3003 22.576 19.2523 22.56C19.2203 22.528 19.1723 22.48 19.1083 22.416C19.0923 22.4 19.0603 22.4 19.0123 22.416C18.9803 22.432 18.9483 22.48 18.9163 22.56C18.9163 22.608 18.8923 22.704 18.8443 22.848C18.7643 22.848 18.7243 22.8 18.7243 22.704C18.7243 22.688 18.7163 22.672 18.7003 22.656C18.6843 22.64 18.6763 22.632 18.6763 22.632C18.6283 22.632 18.5883 22.648 18.5563 22.68C18.5243 22.712 18.5083 22.76 18.5083 22.824C18.5243 22.84 18.5403 22.856 18.5563 22.872C18.5723 22.872 18.5883 22.904 18.6043 22.968C18.6043 22.968 18.5963 22.976 18.5803 22.992C18.5643 22.992 18.5403 22.984 18.5083 22.968C18.5083 22.968 18.4923 22.968 18.4603 22.968C18.4443 22.968 18.4363 22.976 18.4363 22.992V23.136C18.4843 23.184 18.5083 23.232 18.5083 23.28C18.4923 23.312 18.4843 23.352 18.4843 23.4C18.5003 23.432 18.5083 23.464 18.5083 23.496H18.4603C18.4443 23.496 18.4363 23.528 18.4363 23.592C18.4363 23.56 18.4203 23.544 18.3883 23.544C18.3723 23.528 18.3643 23.512 18.3643 23.496L18.3163 23.448C18.3163 23.464 18.3083 23.48 18.2923 23.496C18.2923 23.56 18.2763 23.592 18.2443 23.592C18.2443 23.608 18.2363 23.632 18.2203 23.664C18.2203 23.68 18.2203 23.688 18.2203 23.688C18.2043 23.688 18.1803 23.688 18.1483 23.688C18.1163 23.672 18.1003 23.656 18.1003 23.64C18.0363 23.56 17.9723 23.496 17.9083 23.448C17.8603 23.4 17.7963 23.368 17.7163 23.352H17.5963C17.6763 23.24 17.6683 23.152 17.5723 23.088C17.5563 23.04 17.5403 22.992 17.5243 22.944C17.5243 22.896 17.5083 22.864 17.4763 22.848L17.4043 22.776C17.4043 22.792 17.3963 22.808 17.3803 22.824C17.3803 22.84 17.3803 22.864 17.3803 22.896C17.3483 22.864 17.3163 22.896 17.2843 22.992C17.2843 22.912 17.2683 22.856 17.2363 22.824C17.2203 22.776 17.2123 22.728 17.2123 22.68C17.1803 22.648 17.1643 22.584 17.1643 22.488C17.1003 22.424 17.0443 22.392 16.9963 22.392C16.9483 22.392 16.9243 22.36 16.9243 22.296H16.9003C16.9003 22.216 16.8683 22.176 16.8043 22.176C16.7403 22.176 16.6923 22.16 16.6603 22.128C16.6603 22.128 16.6523 22.128 16.6363 22.128C16.6363 22.112 16.6363 22.088 16.6363 22.056H16.6843C16.7163 22.056 16.7563 22.064 16.8043 22.08C16.8523 22.08 16.8923 22.096 16.9243 22.128V22.2C16.9723 22.232 17.0043 22.264 17.0203 22.296V22.2C17.0843 22.2 17.1163 22.152 17.1163 22.056C17.1643 22.04 17.1883 21.984 17.1883 21.888C17.2203 21.824 17.1963 21.76 17.1163 21.696C17.1003 21.664 17.0923 21.624 17.0923 21.576C17.0923 21.528 17.0923 21.488 17.0923 21.456C17.0923 21.376 17.0923 21.304 17.0923 21.24C17.1083 21.176 17.1163 21.088 17.1163 20.976V20.808C17.1803 20.696 17.2283 20.632 17.2603 20.616C17.2923 20.536 17.3323 20.456 17.3803 20.376C17.4283 20.296 17.4603 20.2 17.4763 20.088V19.896C17.5243 19.848 17.5483 19.76 17.5483 19.632C17.5643 19.568 17.5723 19.496 17.5723 19.416C17.5723 19.32 17.5723 19.24 17.5723 19.176V18.96V18.792V18.672C17.6043 18.656 17.6203 18.6 17.6203 18.504C17.5563 18.44 17.5723 18.392 17.6683 18.36C17.7003 18.296 17.6843 18.248 17.6203 18.216C17.6683 18.168 17.6923 18.136 17.6923 18.12C17.7403 17.944 17.7723 17.768 17.7883 17.592V17.424C17.7723 17.36 17.7643 17.304 17.7643 17.256C17.7643 17.208 17.7643 17.152 17.7643 17.088C17.7803 17.04 17.7803 16.992 17.7643 16.944C17.7643 16.896 17.7643 16.864 17.7643 16.848V16.8C17.7963 16.736 17.8043 16.68 17.7883 16.632C17.7723 16.568 17.7643 16.512 17.7643 16.464C17.7643 16.304 17.7563 16.192 17.7403 16.128L17.6923 16.152V16.08V15.744C17.7243 15.712 17.7403 15.68 17.7403 15.648C17.7403 15.616 17.7403 15.592 17.7403 15.576C17.7563 15.512 17.7643 15.464 17.7643 15.432C17.7643 15.384 17.7643 15.352 17.7643 15.336V15.072V14.904V14.784C17.7803 14.736 17.7883 14.648 17.7883 14.52C17.7723 14.504 17.7723 14.472 17.7883 14.424C17.8043 14.376 17.8203 14.344 17.8363 14.328V14.352C17.8363 14.432 17.8443 14.504 17.8603 14.568C17.8763 14.632 17.8683 14.704 17.8363 14.784C17.8203 14.848 17.8123 14.904 17.8123 14.952C17.8283 15 17.8363 15.04 17.8363 15.072C17.8843 15.12 17.9323 15.144 17.9803 15.144C17.9323 15.16 17.9083 15.192 17.9083 15.24C17.9083 15.288 17.9083 15.336 17.9083 15.384C17.9243 15.432 17.9323 15.48 17.9323 15.528C17.9323 15.576 17.9323 15.6 17.9323 15.6V15.648C17.9643 15.664 17.9803 15.696 17.9803 15.744C17.9963 15.792 18.0123 15.832 18.0283 15.864C18.1083 15.832 18.1643 15.688 18.1963 15.432C18.2283 15.176 18.2043 15.008 18.1243 14.928L18.1723 14.856V14.76C18.1243 14.648 18.1243 14.544 18.1723 14.448V14.352C18.1563 14.272 18.1563 14.184 18.1723 14.088C18.1883 13.976 18.2043 13.872 18.2203 13.776C18.2523 13.696 18.2523 13.6 18.2203 13.488C18.2523 13.408 18.2603 13.336 18.2443 13.272C18.2283 13.208 18.2203 13.144 18.2203 13.08C18.2203 12.952 18.1883 12.84 18.1243 12.744C18.1243 12.712 18.1163 12.688 18.1003 12.672C18.1003 12.64 18.1003 12.616 18.1003 12.6C18.1003 12.504 18.0763 12.48 18.0283 12.528C18.0123 12.512 18.0043 12.488 18.0043 12.456C18.0043 12.424 17.9963 12.4 17.9803 12.384C17.9483 12.304 17.9003 12.288 17.8363 12.336C17.8363 12.288 17.8603 12.264 17.9083 12.264C17.9403 12.104 17.9403 11.96 17.9083 11.832C17.9083 11.832 17.9003 11.824 17.8843 11.808C17.8843 11.792 17.8683 11.784 17.8363 11.784V11.736C17.8363 11.592 17.8283 11.456 17.8123 11.328C17.7963 11.2 17.7803 11.072 17.7643 10.944C17.7483 10.704 17.7003 10.472 17.6203 10.248C17.6203 10.168 17.6043 10.104 17.5723 10.056C17.5563 10.008 17.5483 9.952 17.5483 9.888C17.5483 9.888 17.5323 9.872 17.5003 9.84C17.4843 9.808 17.4763 9.776 17.4763 9.744C17.4923 9.744 17.4683 9.696 17.4043 9.6V9.576C17.4683 9.576 17.4843 9.536 17.4523 9.456C17.4363 9.376 17.4123 9.32 17.3803 9.288C17.3643 9.24 17.3483 9.2 17.3323 9.168C17.3003 9.04 17.2523 8.976 17.1883 8.976C17.2043 8.864 17.1883 8.784 17.1403 8.736C17.1083 8.688 17.0843 8.632 17.0683 8.568C17.0363 8.504 17.0203 8.44 17.0203 8.376C16.9883 8.28 16.9563 8.232 16.9243 8.232C16.9243 8.152 16.9003 8.088 16.8523 8.04C16.8043 7.992 16.7803 7.936 16.7803 7.872C16.8283 7.824 16.9163 7.784 17.0443 7.752L17.0683 7.68C17.1003 7.568 17.1483 7.544 17.2123 7.608C17.2443 7.608 17.2763 7.6 17.3083 7.584C17.3403 7.552 17.3643 7.536 17.3803 7.536C17.3643 7.52 17.3563 7.504 17.3563 7.488C17.3563 7.472 17.3563 7.464 17.3563 7.464C17.3243 7.464 17.3083 7.432 17.3083 7.368L17.3563 7.32C17.3883 7.288 17.4123 7.264 17.4283 7.248C17.4443 7.232 17.4603 7.216 17.4763 7.2C17.5243 7.12 17.5563 7.056 17.5723 7.008C17.6043 6.96 17.6443 6.92 17.6923 6.888C17.6923 6.84 17.7163 6.816 17.7643 6.816C17.8283 6.848 17.8763 6.856 17.9083 6.84C17.9563 6.808 18.0123 6.776 18.0763 6.744C18.1083 6.712 18.1403 6.696 18.1723 6.696C18.2043 6.68 18.2283 6.664 18.2443 6.648C18.3723 6.568 18.4763 6.52 18.5563 6.504C18.6043 6.456 18.6443 6.456 18.6763 6.504C18.7083 6.504 18.7243 6.512 18.7243 6.528C18.7403 6.528 18.7643 6.528 18.7963 6.528C18.8443 6.544 18.8843 6.56 18.9163 6.576C18.9643 6.592 19.0203 6.616 19.0843 6.648C19.1803 6.712 19.2603 6.784 19.3243 6.864C19.3883 6.928 19.4523 6.976 19.5163 7.008C19.5963 7.056 19.6363 7.08 19.6363 7.08L19.7323 7.32L19.9243 7.512C19.9563 7.576 20.0043 7.64 20.0683 7.704C20.1323 7.752 20.1803 7.792 20.2123 7.824C20.2283 7.84 20.2443 7.856 20.2603 7.872C20.2763 7.888 20.2923 7.912 20.3083 7.944C20.3243 7.944 20.3483 7.984 20.3803 8.064C20.3803 8.064 20.3803 8.072 20.3803 8.088C20.3963 8.104 20.4123 8.112 20.4283 8.112C20.4603 8.128 20.4843 8.152 20.5003 8.184C20.5163 8.2 20.5243 8.24 20.5243 8.304L20.5723 8.328C20.5883 8.376 20.6043 8.432 20.6203 8.496C20.6363 8.56 20.6523 8.608 20.6683 8.64C20.7003 8.736 20.7323 8.896 20.7643 9.12C20.7643 9.184 20.7643 9.256 20.7643 9.336C20.7803 9.4 20.7963 9.464 20.8123 9.528C20.8123 9.624 20.8123 9.728 20.8123 9.84C20.8123 9.952 20.8203 10.048 20.8363 10.128C20.8363 10.192 20.8363 10.272 20.8363 10.368C20.8363 10.448 20.8283 10.528 20.8123 10.608V11.016C20.8123 11.08 20.8043 11.136 20.7883 11.184C20.7723 11.216 20.7643 11.256 20.7643 11.304C20.7643 11.432 20.7803 11.52 20.8123 11.568C20.8283 11.68 20.8363 11.784 20.8363 11.88C20.8363 11.976 20.8363 12.064 20.8363 12.144C20.8523 12.24 20.8523 12.328 20.8363 12.408C20.8203 12.488 20.8123 12.568 20.8123 12.648C20.8123 12.648 20.8123 12.656 20.8123 12.672C20.8123 12.672 20.7963 12.672 20.7643 12.672L20.6683 13.152C20.6683 13.184 20.6683 13.232 20.6683 13.296C20.6683 13.344 20.6523 13.384 20.6203 13.416H20.7163V13.488H20.6203C20.6523 13.536 20.6603 13.592 20.6443 13.656C20.6283 13.704 20.6523 13.744 20.7163 13.776C20.6683 13.792 20.6283 13.84 20.5963 13.92C20.5963 13.968 20.5883 14.016 20.5723 14.064C20.5563 14.112 20.5563 14.184 20.5723 14.28C20.5723 14.296 20.5803 14.328 20.5963 14.376C20.6283 14.424 20.6683 14.448 20.7163 14.448C20.7483 14.448 20.7803 14.432 20.8123 14.4C20.8603 14.368 20.8923 14.352 20.9083 14.352H21.1243C21.1563 14.336 21.2683 14.328 21.4603 14.328C21.6683 14.312 21.8763 14.296 22.0843 14.28C22.3083 14.264 22.4443 14.248 22.4923 14.232H22.6363C22.7163 14.232 22.7563 14.272 22.7563 14.352C22.7563 14.448 22.7323 14.496 22.6843 14.496C22.4763 14.496 22.3403 14.504 22.2763 14.52C22.2603 14.536 22.1963 14.544 22.0843 14.544C21.9883 14.544 21.7003 14.536 21.2203 14.52C21.2043 14.504 21.1723 14.496 21.1243 14.496L21.0763 14.52C20.9963 14.568 20.9563 14.648 20.9563 14.76L21.0043 14.784C21.0363 14.784 21.1163 14.816 21.2443 14.88C21.3723 14.928 21.6843 14.896 22.1803 14.784C22.2603 14.784 22.3083 14.776 22.3243 14.76C22.4523 14.76 22.5563 14.752 22.6363 14.736C22.7163 14.704 22.8043 14.672 22.9003 14.64C22.9643 14.64 22.9963 14.592 22.9963 14.496L23.0443 14.52C23.0443 14.584 23.0843 14.616 23.1643 14.616C23.2443 14.584 23.3323 14.56 23.4283 14.544C23.5243 14.528 23.6283 14.512 23.7403 14.496C23.7723 14.464 23.7883 14.432 23.7883 14.4C23.8043 14.368 23.8203 14.352 23.8363 14.352C23.8203 14.336 23.7963 14.328 23.7643 14.328C23.7483 14.328 23.7403 14.328 23.7403 14.328C23.7243 14.296 23.7003 14.288 23.6683 14.304C23.6523 14.32 23.6283 14.328 23.5963 14.328C23.5803 14.328 23.5563 14.312 23.5243 14.28C23.5083 14.248 23.4603 14.224 23.3803 14.208C23.3003 14.176 23.2443 14.176 23.2123 14.208C23.1963 14.208 23.1803 14.216 23.1643 14.232C23.1643 14.296 23.1323 14.328 23.0683 14.328C23.0203 14.328 22.9963 14.296 22.9963 14.232C22.9963 14.184 23.0203 14.16 23.0683 14.16C23.1483 14.128 23.2283 14.104 23.3083 14.088C23.4043 14.056 23.4923 14.032 23.5723 14.016C23.6523 14.016 23.7243 14.008 23.7883 13.992C23.8683 13.976 23.9483 13.968 24.0283 13.968C24.0603 13.936 24.1003 13.92 24.1483 13.92C24.1963 13.904 24.2363 13.888 24.2683 13.872C24.3003 13.872 24.3163 13.888 24.3163 13.92C24.3163 13.936 24.3323 13.952 24.3643 13.968C24.3963 13.968 24.4123 13.968 24.4123 13.968C24.4283 13.968 24.4363 13.96 24.4363 13.944C24.4523 13.912 24.4763 13.888 24.5083 13.872L24.5563 13.8C24.5883 13.784 24.6683 13.776 24.7963 13.776L24.7243 13.8C24.7243 13.832 24.7323 13.856 24.7483 13.872C24.7803 13.872 24.7963 13.888 24.7963 13.92C24.8123 13.92 24.8363 13.904 24.8683 13.872C24.9003 13.824 24.9163 13.792 24.9163 13.776C24.9483 13.776 24.9803 13.76 25.0123 13.728C25.0603 13.696 25.1083 13.672 25.1563 13.656V13.704H25.1083C25.1403 13.736 25.1643 13.744 25.1803 13.728C25.1963 13.696 25.2283 13.672 25.2763 13.656C25.2923 13.656 25.3083 13.664 25.3243 13.68C25.3563 13.68 25.3803 13.672 25.3963 13.656C25.4123 13.656 25.4283 13.664 25.4443 13.68C25.4603 13.696 25.4763 13.704 25.4923 13.704C25.4923 13.704 25.4843 13.696 25.4683 13.68C25.4683 13.664 25.4683 13.648 25.4683 13.632H25.8283C25.8603 13.632 25.9003 13.656 25.9483 13.704C25.9963 13.704 26.0203 13.68 26.0203 13.632C26.0043 13.568 26.0123 13.52 26.0443 13.488C26.0923 13.456 26.1403 13.456 26.1883 13.488C26.2683 13.488 26.3163 13.448 26.3323 13.368H26.3563C26.4203 13.352 26.4443 13.296 26.4283 13.2C26.3483 13.152 26.3243 13.112 26.3563 13.08C26.3883 13.08 26.4043 13.064 26.4043 13.032C26.4203 13 26.4283 12.984 26.4283 12.984C26.3803 12.904 26.3563 12.792 26.3563 12.648C26.4203 12.408 26.4523 12.168 26.4523 11.928C26.4523 11.752 26.4203 11.624 26.3563 11.544C26.3563 11.416 26.3563 11.304 26.3563 11.208C26.3563 11.112 26.3483 10.992 26.3323 10.848V10.68V10.608C26.3323 10.352 26.2283 10.24 26.0203 10.272C26.0043 10.272 25.9883 10.272 25.9723 10.272C25.9563 10.256 25.9323 10.248 25.9003 10.248C25.9003 10.216 25.8843 10.2 25.8523 10.2C25.8363 10.2 25.8203 10.216 25.8043 10.248C25.7563 10.248 25.7323 10.208 25.7323 10.128C25.7163 10.08 25.7003 10.024 25.6843 9.96C25.6683 9.896 25.6603 9.824 25.6603 9.744C25.6123 9.728 25.5883 9.704 25.5883 9.672C25.5723 9.672 25.5643 9.68 25.5643 9.696C25.5643 9.712 25.5483 9.72 25.5163 9.72V9.744C25.5003 9.648 25.4923 9.536 25.4923 9.408C25.4763 9.328 25.4523 9.272 25.4203 9.24L25.3963 9.192C25.3963 9.16 25.3963 9.12 25.3963 9.072C25.3963 9.024 25.3803 8.968 25.3483 8.904C25.3483 8.824 25.3403 8.752 25.3243 8.688C25.3243 8.624 25.3083 8.552 25.2763 8.472C25.2283 8.44 25.1963 8.4 25.1803 8.352C25.1803 8.304 25.1723 8.248 25.1563 8.184C25.1723 8.168 25.1883 8.152 25.2043 8.136C25.2203 8.12 25.2523 8.128 25.3003 8.16C25.3003 8.16 25.3083 8.16 25.3243 8.16C25.3563 8.144 25.3803 8.128 25.3963 8.112C25.4123 8.128 25.4283 8.144 25.4443 8.16C25.4603 8.176 25.4763 8.2 25.4923 8.232C25.4923 8.28 25.5163 8.304 25.5643 8.304V8.232C25.5163 8.12 25.5243 8.008 25.5883 7.896C25.6683 7.864 25.7323 7.84 25.7803 7.824C25.8283 7.792 25.8843 7.776 25.9483 7.776C25.9803 7.792 26.0203 7.776 26.0683 7.728C26.1163 7.68 26.1403 7.64 26.1403 7.608C26.1403 7.56 26.1563 7.52 26.1883 7.488C26.2203 7.44 26.2603 7.432 26.3083 7.464C26.3403 7.464 26.3803 7.48 26.4283 7.512C26.4443 7.48 26.4523 7.44 26.4523 7.392C26.4363 7.344 26.4523 7.28 26.5003 7.2L26.5483 7.08C26.5643 7.08 26.5803 7.096 26.5963 7.128C26.6123 7.16 26.6283 7.144 26.6443 7.08C26.6603 7.08 26.6683 7.056 26.6683 7.008H26.8363C26.8683 6.976 26.9163 6.96 26.9803 6.96L27.0043 6.936C27.0043 6.856 27.0523 6.816 27.1483 6.816C27.2123 6.816 27.2603 6.816 27.2923 6.816C27.3403 6.8 27.3803 6.792 27.4123 6.792C27.4443 6.792 27.4603 6.8 27.4603 6.816C27.4603 6.912 27.4843 6.976 27.5323 7.008C27.5963 7.04 27.6443 7.064 27.6763 7.08C27.8203 7.176 27.9803 7.24 28.1563 7.272C28.1883 7.288 28.2123 7.304 28.2283 7.32C28.2443 7.32 28.2683 7.336 28.3003 7.368C28.3323 7.384 28.3483 7.408 28.3483 7.44C28.3643 7.456 28.3803 7.48 28.3963 7.512C28.4283 7.56 28.4523 7.6 28.4683 7.632C28.4843 7.664 28.4923 7.704 28.4923 7.752C28.4923 7.832 28.5083 7.896 28.5403 7.944C28.6203 8.088 28.6523 8.248 28.6363 8.424V8.976C28.6363 9.072 28.6203 9.16 28.5883 9.24C28.5723 9.304 28.5563 9.384 28.5403 9.48C28.5083 9.56 28.5083 9.624 28.5403 9.672C28.5723 9.752 28.5563 9.824 28.4923 9.888C28.4763 9.904 28.4603 9.928 28.4443 9.96C28.4283 9.976 28.4443 9.984 28.4923 9.984C28.5243 9.984 28.5403 10.008 28.5403 10.056C28.5243 10.072 28.5083 10.104 28.4923 10.152C28.4923 10.184 28.4763 10.216 28.4443 10.248C28.3803 10.424 28.3803 10.56 28.4443 10.656L28.4923 10.68C28.4923 10.68 28.5003 10.672 28.5163 10.656C28.5323 10.64 28.5403 10.624 28.5403 10.608C28.5563 10.576 28.5643 10.536 28.5643 10.488C28.5803 10.424 28.6043 10.376 28.6363 10.344C28.6363 10.312 28.6363 10.296 28.6363 10.296C28.6523 10.28 28.6603 10.264 28.6603 10.248C28.6603 10.264 28.6683 10.288 28.6843 10.32C28.7003 10.336 28.7083 10.344 28.7083 10.344C28.6923 10.456 28.6763 10.568 28.6603 10.68C28.6603 10.792 28.6523 10.888 28.6363 10.968C28.6363 11.048 28.6203 11.112 28.5883 11.16C28.5723 11.208 28.5643 11.248 28.5643 11.28V11.64C28.5643 11.704 28.5563 11.776 28.5403 11.856C28.5403 11.92 28.5403 11.984 28.5403 12.048C28.5243 12.128 28.5083 12.208 28.4923 12.288C28.4923 12.352 28.4923 12.432 28.4923 12.528C28.4763 12.592 28.4683 12.656 28.4683 12.72C28.4843 12.784 28.4923 12.848 28.4923 12.912L28.4443 13.104C28.3963 13.248 28.3803 13.384 28.3963 13.512L28.3723 13.584C28.3723 13.632 28.3483 13.656 28.3003 13.656V13.8L28.2283 13.872C28.2923 14.192 28.2923 14.496 28.2283 14.784V15.024C28.2283 15.088 28.2043 15.16 28.1563 15.24V15.336C28.1883 15.384 28.1963 15.424 28.1803 15.456C28.1643 15.472 28.1403 15.512 28.1083 15.576V15.696C28.1083 15.664 28.1003 15.648 28.0843 15.648C28.0843 15.632 28.0843 15.616 28.0843 15.6L28.1083 15.432C28.1083 15.4 28.1003 15.376 28.0843 15.36C28.0843 15.344 28.0843 15.328 28.0843 15.312V15.144C28.1163 15 28.1163 14.856 28.0843 14.712C28.0363 14.68 28.0203 14.648 28.0363 14.616C28.0683 14.568 28.0843 14.528 28.0843 14.496C28.0843 14.416 28.0843 14.36 28.0843 14.328C28.1003 14.28 28.1003 14.24 28.0843 14.208C27.9883 14.16 27.9323 14.12 27.9163 14.088C27.9003 14.088 27.8923 14.104 27.8923 14.136C27.8923 14.152 27.8923 14.16 27.8923 14.16C27.8763 14.192 27.8603 14.24 27.8443 14.304C27.8443 14.352 27.8363 14.416 27.8203 14.496V14.856L27.7483 14.904C27.7803 14.952 27.7883 14.984 27.7723 15C27.7563 15.016 27.7323 15.04 27.7003 15.072V15.24V15.384C27.7003 15.416 27.6923 15.456 27.6763 15.504C27.6763 15.536 27.6763 15.568 27.6763 15.6C27.6763 15.616 27.6763 15.648 27.6763 15.696C27.6763 15.728 27.6523 15.744 27.6043 15.744V15.864C27.6363 15.928 27.6443 16 27.6283 16.08C27.6123 16.144 27.6043 16.216 27.6043 16.296C27.6043 16.392 27.6283 16.448 27.6763 16.464C27.6763 16.496 27.7003 16.512 27.7483 16.512C27.8283 16.56 27.8523 16.64 27.8203 16.752C27.8203 16.8 27.8043 16.84 27.7723 16.872C27.7563 16.888 27.7323 16.928 27.7003 16.992L27.6763 17.016C27.6123 17 27.5483 17.024 27.4843 17.088C27.5483 17.104 27.5723 17.128 27.5563 17.16C27.5403 17.176 27.5163 17.2 27.4843 17.232C27.4683 17.264 27.4603 17.32 27.4603 17.4C27.4763 17.48 27.5083 17.544 27.5563 17.592C27.4763 17.656 27.4523 17.736 27.4843 17.832C27.5323 17.832 27.5563 17.848 27.5563 17.88V18.312C27.5563 18.376 27.5483 18.432 27.5323 18.48C27.5163 18.528 27.5403 18.584 27.6043 18.648V18.864V18.96V19.296C27.6363 19.376 27.6523 19.448 27.6523 19.512C27.6683 19.576 27.6763 19.648 27.6763 19.728C27.6443 19.744 27.6523 19.792 27.7003 19.872C27.7323 19.936 27.7323 19.984 27.7003 20.016C27.6843 20.048 27.6763 20.096 27.6763 20.16H27.6043V20.088L27.5563 20.136C27.5883 20.136 27.6043 20.16 27.6043 20.208C27.6043 20.24 27.6043 20.256 27.6043 20.256C27.6523 20.208 27.6843 20.2 27.7003 20.232C27.7163 20.248 27.7323 20.272 27.7483 20.304H27.8443V20.16V20.088C27.9243 20.136 27.9483 20.248 27.9163 20.424C27.9003 20.424 27.8763 20.392 27.8443 20.328V20.472C27.9243 20.536 27.9643 20.616 27.9643 20.712C27.9803 20.792 27.9883 20.864 27.9883 20.928C27.9883 21.024 28.0043 21.12 28.0363 21.216C28.0683 21.312 28.0843 21.4 28.0843 21.48C28.0843 21.496 28.0683 21.528 28.0363 21.576C28.0043 21.624 27.9723 21.664 27.9403 21.696C27.9243 21.76 27.9403 21.792 27.9883 21.792C28.0523 21.792 28.0923 21.824 28.1083 21.888C28.1403 21.952 28.1403 22 28.1083 22.032C28.0763 22.128 28.0923 22.208 28.1563 22.272C28.1883 22.272 28.2043 22.296 28.2043 22.344C28.2203 22.36 28.2283 22.392 28.2283 22.44C28.2443 22.488 28.2683 22.528 28.3003 22.56H28.3963C28.4283 22.56 28.4523 22.552 28.4683 22.536C28.4843 22.504 28.4923 22.488 28.4923 22.488C28.5243 22.584 28.5483 22.688 28.5643 22.8C28.5803 22.896 28.6043 23.008 28.6363 23.136C28.6523 23.168 28.6683 23.208 28.6843 23.256C28.7003 23.288 28.6923 23.336 28.6603 23.4C28.6603 23.4 28.6603 23.408 28.6603 23.424C28.6603 23.44 28.6523 23.448 28.6363 23.448C28.6363 23.448 28.6203 23.448 28.5883 23.448C28.5723 23.432 28.5643 23.416 28.5643 23.4C28.5483 23.336 28.5323 23.288 28.5163 23.256C28.5163 23.208 28.4763 23.176 28.3963 23.16C28.3803 23.16 28.3563 23.152 28.3243 23.136C28.2923 23.104 28.2523 23.104 28.2043 23.136C28.1723 23.152 28.1563 23.224 28.1563 23.352C28.1563 23.352 28.1643 23.352 28.1803 23.352C28.1963 23.352 28.2043 23.368 28.2043 23.4C28.1723 23.4 28.1403 23.384 28.1083 23.352L28.0843 23.28C27.9723 23.28 27.8923 23.256 27.8443 23.208C27.8443 23.176 27.8123 23.152 27.7483 23.136C27.7163 23.168 27.6923 23.216 27.6763 23.28C27.6763 23.344 27.6763 23.4 27.6763 23.448C27.6763 23.576 27.6363 23.64 27.5563 23.64C27.4603 23.64 27.4363 23.664 27.4843 23.712C27.5163 23.76 27.5563 23.848 27.6043 23.976L27.5563 24C27.5083 23.984 27.4603 23.928 27.4123 23.832H27.2923V24C27.3243 24.048 27.3403 24.104 27.3403 24.168C27.3563 24.232 27.3723 24.288 27.3883 24.336C27.4043 24.384 27.4043 24.416 27.3883 24.432C27.3883 24.448 27.3883 24.472 27.3883 24.504C27.3403 24.472 27.3163 24.424 27.3163 24.36C27.3163 24.312 27.2843 24.304 27.2203 24.336C27.2203 24.416 27.2363 24.472 27.2683 24.504C27.2683 24.552 27.2763 24.592 27.2923 24.624H27.1483H27.1003V24.72C27.1323 24.768 27.1483 24.808 27.1483 24.84C27.1643 24.872 27.1803 24.928 27.1963 25.008ZM16.9963 22.848C16.9483 22.816 16.8923 22.768 16.8283 22.704C16.7803 22.64 16.7323 22.592 16.6843 22.56C16.6363 22.416 16.5963 22.392 16.5643 22.488L16.5403 22.56C16.4603 22.48 16.4123 22.424 16.3963 22.392C16.3963 22.36 16.4043 22.272 16.4203 22.128C16.4363 22.176 16.4603 22.2 16.4923 22.2C16.4443 22.104 16.4203 22.032 16.4203 21.984C16.4363 22.016 16.4523 22.032 16.4683 22.032C16.5003 22.032 16.5243 22.016 16.5403 21.984V22.128C16.5403 22.128 16.5403 22.144 16.5403 22.176C16.5563 22.192 16.5723 22.208 16.5883 22.224C16.6363 22.272 16.6683 22.296 16.6843 22.296C16.7163 22.328 16.7483 22.344 16.7803 22.344C16.8443 22.392 16.8683 22.416 16.8523 22.416C16.8843 22.448 16.9003 22.48 16.9003 22.512C16.9003 22.544 16.9003 22.56 16.9003 22.56C16.9483 22.56 16.9803 22.552 16.9963 22.536C17.0283 22.504 17.0523 22.488 17.0683 22.488C17.0363 22.456 17.0363 22.448 17.0683 22.464C17.1003 22.48 17.1243 22.488 17.1403 22.488C17.1243 22.488 17.1083 22.504 17.0923 22.536C17.0923 22.552 17.0923 22.56 17.0923 22.56C17.0923 22.576 17.0843 22.584 17.0683 22.584C17.0683 22.584 17.0763 22.6 17.0923 22.632C17.0923 22.664 17.1003 22.704 17.1163 22.752C17.1323 22.784 17.1483 22.816 17.1643 22.848H17.0443H16.9963ZM17.5723 23.256L17.5243 23.208C17.5243 23.176 17.5163 23.16 17.5003 23.16C17.4843 23.144 17.4763 23.136 17.4763 23.136C17.5083 23.136 17.5243 23.128 17.5243 23.112C17.5243 23.096 17.5243 23.088 17.5243 23.088C17.5563 23.12 17.5723 23.16 17.5723 23.208V23.256ZM18.7243 23.136C18.7243 23.136 18.7163 23.128 18.7003 23.112C18.6843 23.08 18.6763 23.04 18.6763 22.992C18.7083 22.992 18.7483 22.984 18.7963 22.968L18.8203 23.088V23.136H18.7243ZM19.7803 22.68L19.8043 22.416C19.8043 22.4 19.8043 22.392 19.8043 22.392C19.8203 22.376 19.8283 22.36 19.8283 22.344H19.8763V22.56C19.8763 22.56 19.8683 22.584 19.8523 22.632C19.8363 22.664 19.8123 22.68 19.7803 22.68ZM17.8363 19.368C17.8843 19.32 17.9083 19.256 17.9083 19.176C17.8123 19.24 17.7883 19.304 17.8363 19.368ZM17.3563 16.752C17.3563 16.672 17.3563 16.6 17.3563 16.536C17.3723 16.456 17.3883 16.376 17.4043 16.296C17.4043 16.376 17.4043 16.456 17.4043 16.536C17.4043 16.6 17.3883 16.672 17.3563 16.752ZM17.4763 16.464V16.368C17.4763 16.336 17.4843 16.312 17.5003 16.296C17.5323 16.264 17.5483 16.216 17.5483 16.152C17.5643 16.216 17.5723 16.272 17.5723 16.32C17.5723 16.352 17.5643 16.432 17.5483 16.56C17.5003 16.56 17.4763 16.528 17.4763 16.464ZM20.1883 19.296V18.96C20.1883 18.912 20.2123 18.864 20.2603 18.816C20.3243 18.768 20.3723 18.736 20.4043 18.72C20.3883 18.736 20.3723 18.752 20.3563 18.768C20.3563 18.784 20.3563 18.792 20.3563 18.792C20.2923 18.824 20.2523 18.872 20.2363 18.936C20.2363 19 20.2363 19.056 20.2363 19.104C20.2363 19.136 20.2283 19.168 20.2123 19.2C20.1963 19.232 20.1883 19.264 20.1883 19.296ZM25.3483 23.4C25.3003 23.4 25.2763 23.352 25.2763 23.256C25.2923 23.272 25.3003 23.296 25.3003 23.328C25.3163 23.36 25.3483 23.368 25.3963 23.352H25.4203C25.4043 23.368 25.3883 23.384 25.3723 23.4C25.3563 23.4 25.3483 23.4 25.3483 23.4ZM17.6203 15.144C17.6203 15.064 17.6203 14.992 17.6203 14.928C17.6363 14.848 17.6523 14.776 17.6683 14.712C17.6683 14.648 17.6763 14.584 17.6923 14.52V14.448C17.6923 14.368 17.7083 14.312 17.7403 14.28C17.7563 14.392 17.7483 14.544 17.7163 14.736C17.6843 14.928 17.6523 15.064 17.6203 15.144ZM17.8363 14.232C17.8043 14.152 17.7963 14.072 17.8123 13.992C17.8443 13.912 17.8763 13.816 17.9083 13.704C17.9883 13.8 17.9883 13.904 17.9083 14.016C17.8763 14.016 17.8523 14.024 17.8363 14.04C17.8363 14.056 17.8363 14.064 17.8363 14.064V14.232ZM27.9403 23.76C27.9243 23.728 27.9003 23.704 27.8683 23.688C27.8523 23.672 27.8363 23.656 27.8203 23.64L27.8443 23.592C27.8763 23.608 27.8923 23.632 27.8923 23.664C27.9083 23.68 27.9243 23.696 27.9403 23.712V23.76ZM28.5403 22.416C28.4763 22.384 28.4443 22.36 28.4443 22.344C28.4283 22.264 28.4123 22.176 28.3963 22.08C28.3803 21.984 28.3483 21.888 28.3003 21.792V21.408C28.3003 21.36 28.2843 21.304 28.2523 21.24C28.2363 21.176 28.2203 21.112 28.2043 21.048V20.976C28.2043 20.944 28.2043 20.896 28.2043 20.832C28.2043 20.752 28.1883 20.68 28.1563 20.616C28.1563 20.584 28.1643 20.56 28.1803 20.544C28.1963 20.512 28.2043 20.488 28.2043 20.472C28.2043 20.376 28.1883 20.32 28.1563 20.304C28.1883 20.32 28.2123 20.36 28.2283 20.424C28.2603 20.472 28.2603 20.52 28.2283 20.568V20.616C28.3083 20.68 28.3483 20.752 28.3483 20.832C28.3643 20.912 28.3723 20.984 28.3723 21.048C28.3723 21.176 28.3963 21.312 28.4443 21.456V21.528C28.4283 21.608 28.4283 21.672 28.4443 21.72C28.4763 21.768 28.4923 21.808 28.4923 21.84C28.4923 21.904 28.5003 21.968 28.5163 22.032C28.5323 22.08 28.5403 22.144 28.5403 22.224V22.344V22.416ZM27.2683 20.16C27.2843 20.16 27.2923 20.16 27.2923 20.16C27.3083 20.144 27.3243 20.136 27.3403 20.136V20.016L27.2683 19.896C27.2683 19.912 27.2523 19.928 27.2203 19.944C27.2043 19.96 27.1963 19.984 27.1963 20.016V20.088V20.136L27.2683 20.16ZM22.5643 14.64C22.5643 14.624 22.5483 14.616 22.5163 14.616C22.5003 14.6 22.4763 14.584 22.4443 14.568C22.4763 14.568 22.4923 14.552 22.4923 14.52C22.5403 14.552 22.5723 14.584 22.5883 14.616C22.5883 14.616 22.5883 14.624 22.5883 14.64C22.5883 14.64 22.5803 14.64 22.5643 14.64ZM27.0763 19.896C27.1243 19.88 27.1963 19.824 27.2923 19.728C27.3563 19.616 27.3563 19.528 27.2923 19.464C27.2923 19.448 27.2603 19.416 27.1963 19.368V19.512H27.1483C27.1163 19.432 27.0923 19.36 27.0763 19.296C27.0763 19.232 27.0763 19.168 27.0763 19.104C27.0763 19.008 27.0443 18.952 26.9803 18.936H26.9323C26.9323 18.888 26.9163 18.84 26.8843 18.792C26.9323 18.76 26.9723 18.728 27.0043 18.696C27.0363 18.648 27.0363 18.592 27.0043 18.528C26.9883 18.448 26.9883 18.352 27.0043 18.24C27.0523 18.224 27.0763 18.2 27.0763 18.168L26.9803 18.096C26.9803 18.096 26.9723 18.104 26.9563 18.12C26.9403 18.12 26.9323 18.136 26.9323 18.168C26.9323 18.2 26.9323 18.24 26.9323 18.288C26.9323 18.32 26.9163 18.376 26.8843 18.456C26.8523 18.424 26.8363 18.392 26.8363 18.36C26.8363 18.312 26.8363 18.272 26.8363 18.24C26.8363 18.224 26.8283 18.216 26.8123 18.216C26.8123 18.2 26.8123 18.184 26.8123 18.168C26.8123 18.184 26.7963 18.2 26.7643 18.216C26.7483 18.216 26.7403 18.216 26.7403 18.216C26.7403 18.296 26.7323 18.384 26.7163 18.48C26.7163 18.576 26.7003 18.656 26.6683 18.72V19.08C26.6683 19.128 26.6763 19.168 26.6923 19.2C26.7243 19.216 26.7403 19.232 26.7403 19.248C26.7723 19.264 26.7883 19.288 26.7883 19.32C26.8043 19.352 26.8203 19.384 26.8363 19.416L26.8843 19.464L26.9323 19.416V19.08C26.9963 19.112 27.0123 19.184 26.9803 19.296C26.9643 19.408 26.9563 19.504 26.9563 19.584C26.9723 19.664 26.9803 19.76 26.9803 19.872C26.9803 19.936 27.0123 19.944 27.0763 19.896ZM27.2683 19.296C27.2843 19.264 27.2923 19.248 27.2923 19.248C27.2923 19.232 27.2923 19.224 27.2923 19.224C27.2923 19.192 27.2843 19.168 27.2683 19.152C27.2683 19.12 27.2683 19.096 27.2683 19.08C27.2683 19.096 27.2523 19.12 27.2203 19.152C27.2043 19.168 27.1963 19.176 27.1963 19.176C27.1963 19.192 27.2043 19.208 27.2203 19.224C27.2523 19.24 27.2683 19.264 27.2683 19.296ZM28.1563 20.04C28.1563 19.896 28.1403 19.808 28.1083 19.776C28.1083 19.76 28.1163 19.752 28.1323 19.752C28.1483 19.752 28.1563 19.752 28.1563 19.752C28.1883 19.784 28.1963 19.824 28.1803 19.872C28.1643 19.904 28.1563 19.96 28.1563 20.04ZM18.1003 15.024C18.1163 15.008 18.1243 14.992 18.1243 14.976V15.072C18.1243 15.072 18.1163 15.072 18.1003 15.072C18.1003 15.056 18.1003 15.04 18.1003 15.024ZM27.8203 19.656V19.584C27.7723 19.552 27.7483 19.512 27.7483 19.464C27.7163 19.4 27.7163 19.328 27.7483 19.248C27.8283 19.376 27.8523 19.512 27.8203 19.656ZM27.4123 19.728C27.5083 19.728 27.5563 19.696 27.5563 19.632C27.5563 19.52 27.5323 19.432 27.4843 19.368C27.4843 19.288 27.4763 19.216 27.4603 19.152C27.4603 19.072 27.4603 19 27.4603 18.936C27.4603 18.792 27.4443 18.696 27.4123 18.648V18.504C27.4123 18.472 27.4203 18.44 27.4363 18.408C27.4523 18.36 27.4443 18.304 27.4123 18.24V18.048C27.3643 17.92 27.3643 17.824 27.4123 17.76C27.4123 17.68 27.3883 17.624 27.3403 17.592C27.3563 17.592 27.3643 17.576 27.3643 17.544C27.3483 17.544 27.3403 17.504 27.3403 17.424H27.2923C27.2763 17.456 27.2683 17.488 27.2683 17.52C27.2683 17.536 27.2683 17.544 27.2683 17.544C27.2843 17.608 27.2763 17.672 27.2443 17.736C27.2283 17.8 27.2363 17.848 27.2683 17.88V18.12V18.216C27.2683 18.264 27.2603 18.304 27.2443 18.336C27.2283 18.352 27.2363 18.368 27.2683 18.384V18.504C27.2043 18.552 27.1803 18.584 27.1963 18.6C27.2123 18.6 27.2443 18.616 27.2923 18.648C27.2923 18.696 27.2843 18.736 27.2683 18.768H27.1483C27.1803 18.784 27.1963 18.808 27.1963 18.84C27.2123 18.872 27.2363 18.904 27.2683 18.936C27.2683 18.888 27.2923 18.864 27.3403 18.864C27.3243 18.928 27.3163 18.992 27.3163 19.056C27.3323 19.104 27.3403 19.168 27.3403 19.248C27.3403 19.328 27.3403 19.4 27.3403 19.464C27.3563 19.512 27.3643 19.568 27.3643 19.632C27.3643 19.696 27.3803 19.728 27.4123 19.728ZM27.7483 19.224C27.7483 19.192 27.7403 19.16 27.7243 19.128C27.7083 19.08 27.7003 19.04 27.7003 19.008C27.7003 18.976 27.7003 18.928 27.7003 18.864C27.7003 18.784 27.6923 18.736 27.6763 18.72C27.6443 18.688 27.6283 18.648 27.6283 18.6C27.6283 18.552 27.6443 18.52 27.6763 18.504C27.6763 18.488 27.7003 18.448 27.7483 18.384V18.936C27.7483 18.952 27.7563 18.976 27.7723 19.008C27.8043 19.024 27.8203 19.048 27.8203 19.08C27.8523 19.112 27.8283 19.16 27.7483 19.224ZM24.0283 14.352L24.1483 14.328H24.2203C24.2683 14.296 24.3243 14.264 24.3883 14.232C24.4523 14.2 24.5243 14.176 24.6043 14.16C24.6043 14.16 24.6043 14.144 24.6043 14.112C24.6043 14.08 24.5963 14.064 24.5803 14.064H24.5083C24.4603 14.08 24.4123 14.096 24.3643 14.112C24.3163 14.128 24.2683 14.112 24.2203 14.064C24.2043 14.064 24.1963 14.056 24.1963 14.04C24.1963 14.024 24.1803 14.032 24.1483 14.064C24.0843 14.064 24.0203 14.096 23.9563 14.16C23.9403 14.16 23.9243 14.184 23.9083 14.232C23.8923 14.264 23.8923 14.296 23.9083 14.328C23.9083 14.344 23.9483 14.352 24.0283 14.352ZM27.7003 17.64V17.592V17.424C27.7003 17.456 27.7083 17.488 27.7243 17.52C27.7403 17.536 27.7483 17.56 27.7483 17.592C27.7483 17.592 27.7483 17.6 27.7483 17.616C27.7483 17.632 27.7323 17.64 27.7003 17.64ZM24.9163 14.088C24.9323 14.088 24.9483 14.088 24.9643 14.088C24.9963 14.072 25.0203 14.064 25.0363 14.064C25.0363 14.064 25.0443 14.056 25.0603 14.04C25.0763 14.024 25.0923 14.016 25.1083 14.016C25.0763 13.984 25.0523 13.968 25.0363 13.968C25.0363 13.936 25.0283 13.92 25.0123 13.92C24.9963 13.92 24.9883 13.92 24.9883 13.92C24.9723 13.936 24.9563 13.952 24.9403 13.968C24.9243 13.968 24.9003 13.984 24.8683 14.016C24.8523 14.016 24.8363 14.024 24.8203 14.04C24.8203 14.056 24.8203 14.064 24.8203 14.064C24.8203 14.064 24.8283 14.072 24.8443 14.088C24.8763 14.088 24.9003 14.088 24.9163 14.088ZM25.2043 14.064C25.3163 14.064 25.4123 14.056 25.4923 14.04C25.5883 14.024 25.6843 14.016 25.7803 14.016V13.968C25.7643 13.968 25.7483 13.96 25.7323 13.944C25.7163 13.928 25.6923 13.92 25.6603 13.92C25.6123 13.92 25.5643 13.928 25.5163 13.944C25.4843 13.944 25.4523 13.92 25.4203 13.872H25.3963C25.3643 13.904 25.3003 13.952 25.2043 14.016V14.064ZM27.2923 15.696C27.3403 15.696 27.3643 15.656 27.3643 15.576L27.3403 15.384C27.3403 15.352 27.3323 15.328 27.3163 15.312C27.3003 15.296 27.2843 15.272 27.2683 15.24H27.1963V15.456V15.6C27.1963 15.664 27.2283 15.696 27.2923 15.696ZM18.8203 23.136C18.8203 23.136 18.8283 23.128 18.8443 23.112C18.8603 23.096 18.8763 23.088 18.8923 23.088L18.8443 23.136H18.8203Z" fill="#E2E2E2"/>
</svg>
