<svg width="32" height="32" viewBox="0 0 32 32" fill="none" xmlns="http://www.w3.org/2000/svg">
<rect width="32" height="32" rx="5" fill="#101014"/>
<path d="M7.94581 25.864C7.97781 25.848 8.00181 25.824 8.01781 25.792C8.04981 25.776 8.08181 25.76 8.11381 25.744C8.03381 25.616 7.93781 25.56 7.82581 25.576H7.29781C7.23381 25.56 7.16181 25.56 7.08181 25.576C7.01781 25.592 6.95381 25.584 6.88981 25.552C6.87381 25.536 6.84981 25.52 6.81781 25.504C6.78581 25.504 6.75381 25.496 6.72181 25.48L6.60181 25.456C6.44181 25.488 6.29781 25.464 6.16981 25.384C6.26581 25.368 6.36181 25.36 6.45781 25.36C6.56981 25.36 6.68181 25.36 6.79381 25.36C6.85781 25.344 6.91381 25.328 6.96181 25.312C7.00981 25.296 7.03381 25.24 7.03381 25.144H7.39381C7.44181 25.128 7.48981 25.112 7.53781 25.096C7.58581 25.08 7.64181 25.064 7.70581 25.048C7.78581 25.048 7.81781 24.992 7.80181 24.88C7.73781 24.88 7.67381 24.88 7.60981 24.88C7.54581 24.864 7.48981 24.824 7.44181 24.76C7.44181 24.76 7.41781 24.76 7.36981 24.76C7.33781 24.76 7.31381 24.776 7.29781 24.808C7.23381 24.872 7.15381 24.904 7.05781 24.904C6.97781 24.888 6.89781 24.88 6.81781 24.88C6.76981 24.864 6.72181 24.864 6.67381 24.88C6.62581 24.88 6.57781 24.88 6.52981 24.88C6.46581 24.912 6.38581 24.944 6.28981 24.976C6.20981 24.976 6.15381 24.968 6.12181 24.952C6.07381 24.888 5.99381 24.88 5.88181 24.928C5.81781 24.832 5.76981 24.776 5.73781 24.76C5.72181 24.744 5.66581 24.744 5.56981 24.76C5.42581 24.808 5.28981 24.824 5.16181 24.808C5.12981 24.776 5.08181 24.768 5.01781 24.784C4.96981 24.8 4.92181 24.816 4.87381 24.832C4.90581 24.896 4.96181 24.92 5.04181 24.904C5.13781 24.888 5.18581 24.936 5.18581 25.048C5.18581 25.048 5.17781 25.048 5.16181 25.048C5.16181 25.064 5.15381 25.072 5.13781 25.072C4.97781 25.056 4.80981 25.048 4.63381 25.048C4.47381 25.048 4.30581 25.048 4.12981 25.048C4.03381 25.032 3.93781 25.016 3.84181 25C3.76181 24.968 3.67381 24.944 3.57781 24.928C3.56181 24.928 3.54581 24.92 3.52981 24.904C3.52981 24.888 3.52181 24.88 3.50581 24.88C3.39381 24.8 3.30581 24.76 3.24181 24.76C3.19381 24.76 3.12181 24.792 3.02581 24.856C2.83381 24.76 2.65781 24.648 2.49781 24.52C2.33781 24.376 2.17781 24.24 2.01781 24.112C1.98581 24.08 1.95381 24.04 1.92181 23.992C1.88981 23.944 1.84981 23.912 1.80181 23.896C1.73781 23.848 1.70581 23.792 1.70581 23.728C1.68981 23.664 1.68981 23.6 1.70581 23.536C1.73781 23.472 1.71381 23.424 1.63381 23.392C1.53781 23.312 1.47381 23.224 1.44181 23.128C1.39381 23.016 1.35381 22.904 1.32181 22.792C1.30581 22.744 1.28981 22.704 1.27381 22.672C1.24181 22.624 1.21781 22.576 1.20181 22.528V22.312C1.20181 22.216 1.25781 22.2 1.36981 22.264C1.49781 22.28 1.61781 22.336 1.72981 22.432C1.82581 22.512 1.92981 22.6 2.04181 22.696C2.08981 22.712 2.11381 22.784 2.11381 22.912C2.12981 23.024 2.20181 23.104 2.32981 23.152C2.36181 23.152 2.40181 23.176 2.44981 23.224C2.64181 23.352 2.84181 23.424 3.04981 23.44C3.19381 23.472 3.33781 23.512 3.48181 23.56C3.62581 23.592 3.76981 23.616 3.91381 23.632C3.99381 23.648 4.06581 23.68 4.12981 23.728C4.19381 23.76 4.26581 23.768 4.34581 23.752L4.12981 23.944C4.17781 24.04 4.24181 24.088 4.32181 24.088C4.40181 24.072 4.48181 24.064 4.56181 24.064C4.54581 24.128 4.53781 24.192 4.53781 24.256C4.53781 24.32 4.52181 24.384 4.48981 24.448C4.47381 24.544 4.40181 24.576 4.27381 24.544C4.22581 24.512 4.18581 24.504 4.15381 24.52C4.12181 24.52 4.08181 24.52 4.03381 24.52C3.92181 24.52 3.84981 24.504 3.81781 24.472C3.64181 24.424 3.48181 24.44 3.33781 24.52L3.36181 24.544C3.44181 24.56 3.52181 24.584 3.60181 24.616C3.68181 24.632 3.76181 24.64 3.84181 24.64H4.05781C4.26581 24.736 4.48981 24.76 4.72981 24.712C4.85781 24.68 4.99381 24.664 5.13781 24.664C5.28181 24.648 5.43381 24.632 5.59381 24.616C5.64181 24.616 5.68981 24.624 5.73781 24.64C5.78581 24.64 5.83381 24.664 5.88181 24.712C5.88181 24.744 5.92181 24.76 6.00181 24.76C6.00181 24.76 6.00981 24.752 6.02581 24.736C6.04181 24.704 6.04981 24.672 6.04981 24.64V24.568C6.38581 24.568 6.72981 24.52 7.08181 24.424C7.16181 24.392 7.23381 24.352 7.29781 24.304C7.37781 24.24 7.44981 24.184 7.51381 24.136C7.48181 23.976 7.44981 23.896 7.41781 23.896C7.38581 23.896 7.31381 23.936 7.20181 24.016C7.08981 23.856 6.92981 23.824 6.72181 23.92C6.57781 23.984 6.44181 24.024 6.31381 24.04C6.26581 24.04 6.20981 24.04 6.14581 24.04C6.09781 24.024 6.04981 24.016 6.00181 24.016C5.98581 23.936 6.01781 23.88 6.09781 23.848C6.17781 23.8 6.17781 23.736 6.09781 23.656C6.14581 23.624 6.18581 23.6 6.21781 23.584C6.26581 23.568 6.32181 23.552 6.38581 23.536C6.44981 23.536 6.51381 23.536 6.57781 23.536C6.65781 23.536 6.72981 23.504 6.79381 23.44C6.69781 23.36 6.60181 23.344 6.50581 23.392C6.42581 23.44 6.34581 23.456 6.26581 23.44C6.26581 23.344 6.23381 23.264 6.16981 23.2C6.26581 23.168 6.35381 23.152 6.43381 23.152C6.51381 23.136 6.59381 23.12 6.67381 23.104C6.84981 23.056 7.03381 23.008 7.22581 22.96C7.43381 22.896 7.64181 22.824 7.84981 22.744C8.08981 22.696 8.27381 22.584 8.40181 22.408L8.54581 22.312C8.73781 22.296 8.80981 22.2 8.76181 22.024C8.76181 21.912 8.80981 21.832 8.90581 21.784C9.03381 21.704 9.15381 21.616 9.26581 21.52C9.37781 21.424 9.49781 21.344 9.62581 21.28C9.70581 21.232 9.76181 21.168 9.79381 21.088C9.82581 20.992 9.84981 20.912 9.86581 20.848C9.89781 20.784 9.91381 20.696 9.91381 20.584C9.86581 20.568 9.80981 20.544 9.74581 20.512C9.69781 20.464 9.63381 20.456 9.55381 20.488C9.47381 20.488 9.37781 20.448 9.26581 20.368C9.10581 20.272 8.95381 20.176 8.80981 20.08C8.66581 19.984 8.51381 19.88 8.35381 19.768C8.28981 19.736 8.22581 19.704 8.16181 19.672C8.09781 19.64 8.02581 19.608 7.94581 19.576C7.67381 19.432 7.42581 19.232 7.20181 18.976C6.96181 18.816 6.73781 18.624 6.52981 18.4C6.46581 18.304 6.38581 18.216 6.28981 18.136C6.20981 18.04 6.12981 17.96 6.04981 17.896C6.01781 17.864 5.98581 17.832 5.95381 17.8C5.92181 17.752 5.88981 17.704 5.85781 17.656C5.77781 17.528 5.69781 17.4 5.61781 17.272C5.53781 17.128 5.43381 17 5.30581 16.888C5.27381 16.84 5.24981 16.792 5.23381 16.744C5.21781 16.696 5.22581 16.64 5.25781 16.576C5.14581 16.544 5.06581 16.488 5.01781 16.408C4.96981 16.312 4.92181 16.232 4.87381 16.168C4.85781 16.12 4.83381 16.072 4.80181 16.024C4.78581 15.976 4.76181 15.928 4.72981 15.88C4.63381 15.784 4.60981 15.688 4.65781 15.592C4.67381 15.624 4.68981 15.664 4.70581 15.712C4.73781 15.744 4.76181 15.776 4.77781 15.808C4.85781 15.808 4.92981 15.824 4.99381 15.856C4.99381 15.808 4.98581 15.76 4.96981 15.712C4.96981 15.664 4.96981 15.616 4.96981 15.568C4.95381 15.52 4.94581 15.432 4.94581 15.304V14.992C4.96181 14.832 4.97781 14.672 4.99381 14.512C5.00981 14.336 5.02581 14.16 5.04181 13.984C5.05781 13.888 5.08181 13.8 5.11381 13.72C5.14581 13.64 5.16981 13.552 5.18581 13.456C5.24981 13.296 5.31381 13.144 5.37781 13C5.44181 12.856 5.50581 12.704 5.56981 12.544L5.78581 12.208C5.81781 12.16 5.84981 12.12 5.88181 12.088C5.92981 12.04 5.96181 11.984 5.97781 11.92C5.99381 11.872 6.01781 11.824 6.04981 11.776C6.09781 11.728 6.13781 11.688 6.16981 11.656C6.26581 11.576 6.35381 11.504 6.43381 11.44C6.52981 11.376 6.62581 11.304 6.72181 11.224C6.76981 11.192 6.81781 11.176 6.86581 11.176C6.92981 11.16 6.98581 11.176 7.03381 11.224C6.84181 11.368 6.72181 11.544 6.67381 11.752L6.69781 11.8C6.72981 11.768 6.76181 11.752 6.79381 11.752C6.82581 11.752 6.84981 11.744 6.86581 11.728C6.89781 11.696 6.92981 11.664 6.96181 11.632C6.99381 11.584 7.01781 11.536 7.03381 11.488C7.06581 11.488 7.08181 11.48 7.08181 11.464C7.09781 11.448 7.10581 11.44 7.10581 11.44C7.16981 11.44 7.20981 11.432 7.22581 11.416C7.32181 11.368 7.40981 11.32 7.48981 11.272C7.58581 11.208 7.68181 11.144 7.77781 11.08L7.72981 11.032C7.63381 11.032 7.57781 11.024 7.56181 11.008C7.54581 10.992 7.52981 10.936 7.51381 10.84C7.49781 10.808 7.47381 10.776 7.44181 10.744C7.42581 10.696 7.40181 10.648 7.36981 10.6L7.48981 10.48C7.29781 10.336 7.30581 10.208 7.51381 10.096C7.46581 10.032 7.40181 10.008 7.32181 10.024C7.27381 10.056 7.23381 10.088 7.20181 10.12C7.16981 10.152 7.12981 10.176 7.08181 10.192C7.06581 10.208 7.04181 10.216 7.00981 10.216C6.97781 10.216 6.94581 10.232 6.91381 10.264C6.94581 10.168 6.98581 10.104 7.03381 10.072C7.12981 9.96 7.23381 9.848 7.34581 9.736C7.45781 9.624 7.56981 9.536 7.68181 9.472C7.80981 9.36 7.93781 9.264 8.06581 9.184C8.20981 9.088 8.35381 8.992 8.49781 8.896C8.57781 8.832 8.65781 8.776 8.73781 8.728C8.81781 8.664 8.88981 8.6 8.95381 8.536C9.01781 8.488 9.08181 8.432 9.14581 8.368C9.22581 8.288 9.29781 8.216 9.36181 8.152C9.36181 8.136 9.36981 8.128 9.38581 8.128C9.40181 8.112 9.41781 8.088 9.43381 8.056C9.30581 8.088 9.18581 8.128 9.07381 8.176C8.96181 8.224 8.84181 8.248 8.71381 8.248C8.74581 8.168 8.78581 8.112 8.83381 8.08L9.24181 7.936C9.30581 7.904 9.36181 7.88 9.40981 7.864C9.45781 7.848 9.51381 7.832 9.57781 7.816C9.70581 7.784 9.84181 7.752 9.98581 7.72C10.1298 7.672 10.2578 7.64 10.3698 7.624C10.4178 7.592 10.4658 7.568 10.5138 7.552C10.5618 7.52 10.6098 7.488 10.6578 7.456C10.7698 7.392 10.8738 7.392 10.9698 7.456C11.0498 7.504 11.1218 7.552 11.1858 7.6C11.2658 7.632 11.3218 7.688 11.3538 7.768C11.6578 7.816 11.9058 7.984 12.0978 8.272C12.0978 8.272 12.0978 8.28 12.0978 8.296C12.0978 8.296 12.1058 8.296 12.1218 8.296L12.5058 8.68C12.6178 8.856 12.7458 9.032 12.8898 9.208C12.9858 9.336 13.0498 9.472 13.0818 9.616C13.1298 9.76 13.1778 9.896 13.2258 10.024C13.3378 10.28 13.3378 10.544 13.2258 10.816C13.2258 10.848 13.2178 10.88 13.2018 10.912C13.2018 10.944 13.2098 10.976 13.2258 11.008C13.2258 11.088 13.2338 11.152 13.2498 11.2C13.2658 11.248 13.2418 11.312 13.1778 11.392C13.1618 11.408 13.1538 11.44 13.1538 11.488C13.1698 11.536 13.1778 11.576 13.1778 11.608H12.9378C12.7938 11.624 12.7698 11.696 12.8658 11.824C12.9298 11.936 12.9058 12.008 12.7938 12.04C12.7298 12.056 12.6978 12.112 12.6978 12.208C12.6978 12.256 12.6818 12.312 12.6498 12.376C12.6338 12.424 12.6178 12.48 12.6018 12.544C12.5858 12.448 12.5618 12.368 12.5298 12.304C12.5138 12.24 12.4978 12.176 12.4818 12.112C12.4818 12.08 12.4658 12.064 12.4338 12.064C12.4178 12.048 12.4018 12.032 12.3858 12.016L12.2898 12.16C12.2738 12.272 12.2578 12.384 12.2418 12.496C12.2258 12.608 12.2098 12.72 12.1938 12.832C12.1778 12.992 12.1618 13.152 12.1458 13.312C12.1458 13.472 12.0898 13.624 11.9778 13.768C11.9138 13.704 11.8818 13.624 11.8818 13.528C11.8978 13.432 11.8898 13.336 11.8578 13.24C11.8098 13.304 11.7698 13.376 11.7378 13.456C11.7058 13.52 11.6658 13.576 11.6178 13.624C11.5858 13.672 11.5458 13.728 11.4978 13.792C11.4498 13.856 11.3778 13.904 11.2818 13.936C11.2658 13.84 11.2578 13.752 11.2578 13.672C11.2578 13.576 11.2418 13.496 11.2098 13.432C11.2098 13.304 11.1858 13.216 11.1378 13.168C11.1218 13.152 11.1058 13.128 11.0898 13.096C11.0898 13.064 11.0818 13.04 11.0658 13.024C11.0658 12.944 11.0578 12.872 11.0418 12.808C10.9938 12.824 10.9378 12.864 10.8738 12.928C10.8738 12.912 10.8658 12.896 10.8498 12.88C10.8498 12.864 10.8498 12.856 10.8498 12.856C10.8498 12.824 10.8498 12.8 10.8498 12.784C10.8658 12.752 10.8738 12.712 10.8738 12.664C10.8258 12.696 10.7618 12.712 10.6818 12.712C10.7458 12.616 10.7858 12.52 10.8018 12.424C10.8338 12.328 10.8178 12.224 10.7538 12.112C10.7378 12.128 10.7218 12.152 10.7058 12.184C10.6898 12.216 10.6818 12.24 10.6818 12.256H10.6578C10.6418 12.192 10.6338 12.128 10.6338 12.064C10.6338 12 10.6178 11.928 10.5858 11.848C10.5218 11.848 10.4658 11.848 10.4178 11.848C10.3698 11.848 10.3138 11.864 10.2498 11.896C9.92981 11.944 9.65781 12.016 9.43381 12.112C9.12981 12.208 8.85781 12.352 8.61781 12.544C8.56981 12.592 8.51381 12.648 8.44981 12.712C8.40181 12.76 8.33781 12.808 8.25781 12.856C8.17781 12.92 8.10581 13.008 8.04181 13.12C7.99381 13.216 7.92981 13.304 7.84981 13.384C7.78581 13.512 7.70581 13.64 7.60981 13.768C7.52981 13.896 7.44981 14.024 7.36981 14.152C7.27381 14.264 7.20981 14.312 7.17781 14.296C7.16181 14.28 7.13781 14.344 7.10581 14.488C7.08981 14.552 7.09781 14.632 7.12981 14.728C7.16181 14.824 7.18581 14.92 7.20181 15.016C7.28181 15.176 7.35381 15.344 7.41781 15.52C7.49781 15.68 7.59381 15.84 7.70581 16C7.89781 16.224 8.08981 16.448 8.28181 16.672C8.48981 16.88 8.70581 17.072 8.92981 17.248C9.08981 17.376 9.24981 17.504 9.40981 17.632C9.58581 17.744 9.75381 17.864 9.91381 17.992C10.0738 18.088 10.2258 18.184 10.3698 18.28C10.5298 18.376 10.6898 18.472 10.8498 18.568L11.7858 19.192C11.8178 19.208 11.8658 19.264 11.9298 19.36C11.9618 19.424 12.0018 19.48 12.0498 19.528C12.1138 19.576 12.1778 19.624 12.2418 19.672C12.4338 19.768 12.5938 19.888 12.7218 20.032C12.8658 20.176 12.9938 20.336 13.1058 20.512C13.2018 20.656 13.2738 20.808 13.3218 20.968C13.3858 21.128 13.4738 21.272 13.5858 21.4C13.6018 21.416 13.6018 21.448 13.5858 21.496C13.5858 21.544 13.5938 21.592 13.6098 21.64C13.6418 21.64 13.6658 21.648 13.6818 21.664C13.7138 21.68 13.7538 21.688 13.8018 21.688C13.8018 21.752 13.7938 21.848 13.7778 21.976C13.7778 22.104 13.7458 22.336 13.6818 22.672C13.6498 22.688 13.6178 22.712 13.5858 22.744C13.5538 22.76 13.5218 22.784 13.4898 22.816C13.4898 22.928 13.4978 23.016 13.5138 23.08C13.4498 23.096 13.4098 23.088 13.3938 23.056C13.3938 23.024 13.3778 23 13.3458 22.984C13.3138 22.92 13.2738 22.888 13.2258 22.888C13.0978 22.92 13.0498 22.968 13.0818 23.032C13.0978 23.08 13.0898 23.112 13.0578 23.128C13.0418 23.144 13.0178 23.168 12.9858 23.2C12.8098 23.312 12.6418 23.488 12.4818 23.728C12.4338 23.84 12.3618 23.936 12.2658 24.016C12.1858 24.08 12.0978 24.152 12.0018 24.232C11.9858 24.248 11.9538 24.264 11.9058 24.28C11.8738 24.296 11.8338 24.304 11.7858 24.304C11.5938 24.256 11.4658 24.312 11.4018 24.472C11.4018 24.568 11.3538 24.632 11.2578 24.664C11.2098 24.664 11.1858 24.696 11.1858 24.76C11.1698 24.824 11.1378 24.88 11.0898 24.928C11.0738 24.944 11.0498 24.96 11.0178 24.976C11.0018 24.976 10.9778 24.992 10.9458 25.024H10.8978C10.7858 25.12 10.6658 25.104 10.5378 24.976C10.4738 24.992 10.4178 25 10.3698 25C10.3218 25.016 10.2818 25.032 10.2498 25.048C10.1698 25.08 10.0978 25.112 10.0338 25.144C9.96981 25.192 9.90581 25.232 9.84181 25.264C9.82581 25.28 9.80981 25.296 9.79381 25.312C9.77781 25.344 9.76181 25.36 9.74581 25.36C9.66581 25.344 9.60181 25.352 9.55381 25.384C9.52181 25.432 9.48181 25.464 9.43381 25.48C9.38581 25.512 9.33781 25.528 9.28981 25.528C9.24181 25.528 9.19381 25.528 9.14581 25.528C9.08181 25.592 9.00981 25.624 8.92981 25.624C8.86581 25.64 8.79381 25.656 8.71381 25.672C8.66581 25.688 8.61781 25.704 8.56981 25.72C8.52181 25.736 8.47381 25.752 8.42581 25.768C8.34581 25.784 8.26581 25.8 8.18581 25.816C8.10581 25.848 8.02581 25.864 7.94581 25.864ZM3.00181 23.92C3.06581 23.952 3.10581 23.944 3.12181 23.896C3.04181 23.768 2.91381 23.712 2.73781 23.728C2.73781 23.808 2.76981 23.856 2.83381 23.872C2.89781 23.888 2.95381 23.904 3.00181 23.92ZM4.56181 23.752C4.62581 23.72 4.70581 23.712 4.80181 23.728C4.70581 23.728 4.62581 23.736 4.56181 23.752ZM5.88181 23.248V23.2C5.91381 23.2 5.93781 23.2 5.95381 23.2C5.98581 23.2 6.01781 23.2 6.04981 23.2V23.224C6.01781 23.224 5.98581 23.232 5.95381 23.248C5.93781 23.248 5.91381 23.248 5.88181 23.248ZM9.14581 25.528C9.17781 25.496 9.20981 25.472 9.24181 25.456C9.28981 25.456 9.31381 25.424 9.31381 25.36C9.23381 25.328 9.17781 25.312 9.14581 25.312C9.12981 25.328 9.08981 25.384 9.02581 25.48C9.08981 25.48 9.12981 25.496 9.14581 25.528ZM7.72981 24.136C7.82581 24.12 7.92181 24.104 8.01781 24.088C8.12981 24.072 8.23381 24.032 8.32981 23.968C8.37781 23.968 8.40181 23.944 8.40181 23.896C8.40181 23.864 8.38581 23.84 8.35381 23.824C8.33781 23.792 8.32181 23.768 8.30581 23.752C8.27381 23.752 8.24181 23.76 8.20981 23.776C8.17781 23.792 8.14581 23.8 8.11381 23.8C8.08181 23.8 8.04981 23.808 8.01781 23.824C8.00181 23.824 7.97781 23.824 7.94581 23.824C7.83381 23.808 7.76181 23.824 7.72981 23.872C7.71381 23.904 7.71381 23.992 7.72981 24.136ZM11.2098 24.952C11.1938 24.904 11.1858 24.84 11.1858 24.76C11.1858 24.792 11.2018 24.816 11.2338 24.832C11.2658 24.848 11.2578 24.888 11.2098 24.952ZM11.4738 24.952C11.4738 24.792 11.5458 24.712 11.6898 24.712C11.7058 24.712 11.7138 24.72 11.7138 24.736C11.6978 24.768 11.6658 24.8 11.6178 24.832C11.5698 24.864 11.5218 24.904 11.4738 24.952ZM4.46581 14.704C4.41781 14.624 4.40181 14.544 4.41781 14.464C4.44981 14.384 4.46581 14.296 4.46581 14.2C4.51381 14.28 4.53781 14.352 4.53781 14.416C4.55381 14.48 4.56181 14.544 4.56181 14.608C4.56181 14.624 4.54581 14.64 4.51381 14.656C4.49781 14.672 4.48181 14.688 4.46581 14.704ZM5.06581 12.808C5.04981 12.776 5.03381 12.752 5.01781 12.736C5.00181 12.704 4.98581 12.672 4.96981 12.64C5.01781 12.608 5.06581 12.576 5.11381 12.544C5.16181 12.512 5.21781 12.48 5.28181 12.448C5.24981 12.576 5.21781 12.68 5.18581 12.76C5.18581 12.776 5.16981 12.792 5.13781 12.808C5.10581 12.808 5.08181 12.808 5.06581 12.808ZM5.56981 12.112C5.50581 11.92 5.57781 11.816 5.78581 11.8C5.76981 11.912 5.69781 12.016 5.56981 12.112ZM7.32181 11.176C7.30581 11.128 7.29781 11.104 7.29781 11.104C7.29781 11.088 7.32181 11.08 7.36981 11.08C7.36981 11.08 7.36981 11.088 7.36981 11.104C7.38581 11.104 7.39381 11.104 7.39381 11.104L7.32181 11.176ZM8.25781 10.696C8.33781 10.664 8.40981 10.64 8.47381 10.624C8.53781 10.592 8.58581 10.528 8.61781 10.432C8.50581 10.4 8.43381 10.408 8.40181 10.456C8.38581 10.488 8.33781 10.568 8.25781 10.696ZM8.04181 10.504C8.15381 10.488 8.24981 10.424 8.32981 10.312C8.39381 10.216 8.48181 10.208 8.59381 10.288C8.62581 10.32 8.66581 10.344 8.71381 10.36C8.76181 10.376 8.80981 10.4 8.85781 10.432C8.93781 10.368 9.00981 10.304 9.07381 10.24C9.15381 10.16 9.24181 10.112 9.33781 10.096C9.43381 10.064 9.48181 10 9.48181 9.904C9.52981 9.856 9.55381 9.784 9.55381 9.688C9.53781 9.656 9.51381 9.632 9.48181 9.616C9.46581 9.584 9.44981 9.552 9.43381 9.52C9.51381 9.392 9.59381 9.36 9.67381 9.424C9.76981 9.472 9.85781 9.496 9.93781 9.496C9.95381 9.448 9.96981 9.4 9.98581 9.352C10.0018 9.304 10.0258 9.248 10.0578 9.184C10.0098 9.184 9.96981 9.184 9.93781 9.184C9.90581 9.168 9.87381 9.168 9.84181 9.184C9.76181 9.2 9.68181 9.224 9.60181 9.256C9.52181 9.272 9.44181 9.288 9.36181 9.304C9.29781 9.32 9.24981 9.344 9.21781 9.376C9.18581 9.408 9.16981 9.472 9.16981 9.568C9.26581 9.632 9.31381 9.688 9.31381 9.736C9.32981 9.768 9.29781 9.824 9.21781 9.904C9.18581 9.872 9.15381 9.824 9.12181 9.76L8.85781 10.024C8.80981 9.976 8.73781 9.96 8.64181 9.976C8.56181 9.992 8.51381 9.936 8.49781 9.808C8.35381 9.84 8.22581 9.888 8.11381 9.952C8.00181 10 7.90581 10.08 7.82581 10.192C7.80981 10.224 7.78581 10.256 7.75381 10.288C7.73781 10.304 7.71381 10.328 7.68181 10.36C7.79381 10.424 7.88181 10.408 7.94581 10.312C7.97781 10.296 8.00981 10.272 8.04181 10.24C8.08981 10.208 8.13781 10.184 8.18581 10.168C8.23381 10.248 8.21781 10.288 8.13781 10.288C8.04181 10.304 8.00981 10.376 8.04181 10.504ZM9.57781 10.024H9.72181C9.68981 10.008 9.67381 9.992 9.67381 9.976C9.65781 9.992 9.62581 10 9.57781 10C9.57781 10 9.57781 10.008 9.57781 10.024ZM8.18581 8.464C8.26581 8.352 8.31381 8.296 8.32981 8.296C8.36181 8.28 8.41781 8.296 8.49781 8.344C8.44981 8.36 8.40181 8.384 8.35381 8.416C8.30581 8.432 8.24981 8.448 8.18581 8.464ZM26.1963 26.008C26.1003 25.928 26.0443 25.88 26.0283 25.864C25.9803 25.864 25.9483 25.856 25.9323 25.84C25.9163 25.824 25.8923 25.816 25.8603 25.816C25.8283 25.784 25.7883 25.752 25.7403 25.72C25.6923 25.704 25.6603 25.68 25.6443 25.648C25.5483 25.6 25.4603 25.528 25.3803 25.432C25.3003 25.336 25.2203 25.256 25.1403 25.192C25.1243 25.144 25.1003 25.088 25.0683 25.024C25.0363 24.976 25.0203 24.912 25.0203 24.832C25.0203 24.816 25.0043 24.8 24.9723 24.784C24.9563 24.752 24.9323 24.728 24.9003 24.712C24.8523 24.696 24.7963 24.656 24.7323 24.592C24.7483 24.592 24.7243 24.56 24.6603 24.496C24.6603 24.464 24.6443 24.432 24.6123 24.4C24.5963 24.352 24.5883 24.312 24.5883 24.28C24.5723 24.28 24.5643 24.28 24.5643 24.28C24.5643 24.264 24.5643 24.256 24.5643 24.256C24.6123 24.224 24.6203 24.192 24.5883 24.16C24.5723 24.128 24.5723 24.104 24.5883 24.088C24.5883 24.04 24.5803 24.016 24.5643 24.016C24.5643 24 24.5643 23.992 24.5643 23.992C24.4203 23.96 24.3483 23.856 24.3483 23.68C24.3323 23.648 24.3323 23.624 24.3483 23.608C24.3643 23.592 24.3803 23.6 24.3963 23.632C24.4443 23.632 24.4763 23.584 24.4923 23.488C24.4283 23.456 24.3563 23.424 24.2763 23.392C24.2123 23.344 24.1403 23.312 24.0603 23.296C24.0923 23.28 24.1243 23.272 24.1563 23.272C24.1723 23.272 24.1963 23.264 24.2283 23.248C24.2763 23.232 24.3163 23.224 24.3483 23.224C24.3803 23.224 24.4043 23.232 24.4203 23.248C24.4363 23.264 24.4603 23.272 24.4923 23.272L24.7323 23.296C24.7963 23.296 24.8523 23.288 24.9003 23.272H24.9483C24.9803 23.304 25.0123 23.312 25.0443 23.296C25.0923 23.264 25.1483 23.24 25.2123 23.224C25.2603 23.24 25.2923 23.24 25.3083 23.224C25.3243 23.208 25.3403 23.2 25.3563 23.2C25.3403 23.12 25.3323 23.064 25.3323 23.032C25.3323 22.984 25.3243 22.952 25.3083 22.936C25.2443 22.872 25.2123 22.816 25.2123 22.768C25.1963 22.736 25.1883 22.712 25.1883 22.696C25.1883 22.664 25.1883 22.648 25.1883 22.648C25.1883 22.568 25.1883 22.504 25.1883 22.456C25.2043 22.408 25.2123 22.36 25.2123 22.312C25.1803 22.184 25.1643 22.072 25.1643 21.976C25.1803 21.88 25.1963 21.768 25.2123 21.64C25.1963 21.656 25.1803 21.672 25.1643 21.688C25.1483 21.704 25.1243 21.728 25.0923 21.76C25.0763 21.776 25.0683 21.808 25.0683 21.856C25.0683 21.904 25.0523 21.944 25.0203 21.976V21.928C25.0203 21.864 25.0203 21.808 25.0203 21.76C25.0363 21.696 25.0203 21.648 24.9723 21.616C25.0203 21.536 25.0283 21.488 24.9963 21.472C24.9643 21.456 24.9323 21.44 24.9003 21.424C24.8523 21.376 24.8283 21.336 24.8283 21.304C24.8283 21.256 24.8283 21.2 24.8283 21.136C24.8123 21.104 24.8043 21.064 24.8043 21.016C24.8043 20.936 24.8123 20.888 24.8283 20.872C24.8283 20.792 24.8123 20.752 24.7803 20.752C24.7803 20.704 24.7723 20.672 24.7563 20.656C24.7403 20.624 24.7323 20.584 24.7323 20.536L24.7803 20.512C24.8123 20.512 24.8283 20.496 24.8283 20.464C24.8603 20.464 24.8763 20.448 24.8763 20.416C24.8763 20.384 24.8603 20.368 24.8283 20.368C24.8123 20.272 24.8363 20.184 24.9003 20.104H24.9483C24.9323 19.976 24.9003 19.864 24.8523 19.768C24.8203 19.656 24.7963 19.552 24.7803 19.456C24.7323 19.488 24.7083 19.456 24.7083 19.36C24.7083 19.36 24.6923 19.352 24.6603 19.336C24.6443 19.32 24.6203 19.312 24.5883 19.312C24.5723 19.28 24.5563 19.256 24.5403 19.24C24.5243 19.224 24.5163 19.2 24.5163 19.168C24.5163 19.136 24.5083 19.104 24.4923 19.072C24.4923 19.04 24.4923 18.992 24.4923 18.928C24.5243 18.896 24.5563 18.936 24.5883 19.048C24.5883 19.096 24.6283 19.12 24.7083 19.12C24.7243 19.12 24.7403 19.128 24.7563 19.144C24.7723 19.16 24.7883 19.168 24.8043 19.168C24.8843 19.136 24.9323 19.072 24.9483 18.976C24.9643 18.88 24.9723 18.776 24.9723 18.664V18.256C24.9723 18.192 24.9643 18.128 24.9483 18.064C24.9483 17.984 24.9483 17.912 24.9483 17.848V17.536C24.9483 17.472 24.9323 17.424 24.9003 17.392C24.8683 17.36 24.8443 17.32 24.8283 17.272C24.8283 17.224 24.8123 17.192 24.7803 17.176C24.7803 17.176 24.7723 17.16 24.7563 17.128C24.7403 17.08 24.7323 17.048 24.7323 17.032C24.7323 16.968 24.7083 16.912 24.6603 16.864H24.5883C24.5243 16.784 24.4843 16.808 24.4683 16.936C24.4683 16.984 24.4523 17.008 24.4203 17.008V16.936C24.4043 16.824 24.3963 16.728 24.3963 16.648C24.3963 16.568 24.3963 16.48 24.3963 16.384C24.3963 16.304 24.3803 16.256 24.3483 16.24C24.3323 16.224 24.3083 16.216 24.2763 16.216C24.1963 16.216 24.1163 16.24 24.0363 16.288C23.9723 16.32 23.9003 16.376 23.8203 16.456H23.7963V16.312C23.7003 16.312 23.6123 16.328 23.5323 16.36C23.4523 16.392 23.3803 16.424 23.3163 16.456C23.2363 16.472 23.1563 16.48 23.0763 16.48C22.9963 16.48 22.9163 16.496 22.8363 16.528C22.7723 16.544 22.7083 16.56 22.6443 16.576C22.5963 16.592 22.5483 16.616 22.5003 16.648C22.4843 16.648 22.4683 16.656 22.4523 16.672C22.4523 16.688 22.4443 16.704 22.4283 16.72L22.4043 16.768C22.3403 16.736 22.2763 16.736 22.2123 16.768C22.1643 16.784 22.1083 16.784 22.0443 16.768H21.9963C21.9323 16.848 21.8603 16.896 21.7803 16.912C21.7163 16.928 21.6523 16.952 21.5883 16.984V16.768C21.5243 16.816 21.4683 16.848 21.4203 16.864C21.3883 16.88 21.3563 16.904 21.3243 16.936C21.2283 16.984 21.1403 17.008 21.0603 17.008C21.0603 17.024 21.0523 17.032 21.0363 17.032C21.0203 17.032 21.0123 17.032 21.0123 17.032C20.9963 17.064 20.9643 17.08 20.9163 17.08C20.8523 17.08 20.7883 17.08 20.7243 17.08C20.6763 17.064 20.6203 17.072 20.5563 17.104V17.176C20.4763 17.176 20.4043 17.192 20.3403 17.224C20.2763 17.256 20.2123 17.288 20.1483 17.32C20.0523 17.368 19.9563 17.392 19.8603 17.392H19.7643C19.6683 17.424 19.6043 17.488 19.5723 17.584V17.824C19.5243 17.872 19.5003 17.928 19.5003 17.992C19.5163 18.04 19.5243 18.088 19.5243 18.136V18.376C19.5243 18.392 19.5163 18.416 19.5003 18.448C19.4843 18.464 19.4683 18.488 19.4523 18.52V18.208C19.4043 18.208 19.3483 18.216 19.2843 18.232C19.2363 18.248 19.1963 18.256 19.1643 18.256C19.1483 18.224 19.1323 18.2 19.1163 18.184C19.1163 18.152 19.1563 18.104 19.2363 18.04V18.064C19.2363 18.064 19.2363 18.08 19.2363 18.112C19.2523 18.128 19.2843 18.152 19.3323 18.184C19.3323 18.168 19.3563 18.128 19.4043 18.064C19.4043 18.032 19.4123 17.984 19.4283 17.92C19.4603 17.856 19.4763 17.816 19.4763 17.8V17.512C19.4763 17.512 19.4683 17.504 19.4523 17.488C19.4523 17.456 19.4363 17.44 19.4043 17.44H19.1163C19.0843 17.44 19.0683 17.472 19.0683 17.536C19.0523 17.68 19.0443 17.824 19.0443 17.968C19.0443 18.112 19.0283 18.248 18.9963 18.376C18.9963 18.488 18.9883 18.6 18.9723 18.712C18.9723 18.808 18.9723 18.92 18.9723 19.048C18.9723 19.176 18.9563 19.304 18.9243 19.432C18.8923 19.544 18.8763 19.664 18.8763 19.792C18.8763 19.824 18.8683 19.848 18.8523 19.864C18.8363 19.88 18.8283 19.904 18.8283 19.936C18.7643 19.952 18.7643 20.008 18.8283 20.104C18.7483 20.104 18.7083 20.144 18.7083 20.224C18.7083 20.224 18.7083 20.232 18.7083 20.248C18.7243 20.248 18.7403 20.248 18.7563 20.248C18.8203 20.248 18.8363 20.288 18.8043 20.368C18.8043 20.384 18.7963 20.4 18.7803 20.416C18.7643 20.416 18.7563 20.432 18.7563 20.464C18.7883 20.528 18.7883 20.584 18.7563 20.632C18.7243 20.664 18.6923 20.704 18.6603 20.752C18.5803 20.928 18.5963 21.096 18.7083 21.256C18.6443 21.256 18.5803 21.312 18.5163 21.424C18.5163 21.488 18.5083 21.552 18.4923 21.616C18.4763 21.664 18.4603 21.728 18.4443 21.808C18.4123 21.872 18.4203 21.912 18.4683 21.928C18.5003 21.928 18.5243 21.944 18.5403 21.976C18.5563 21.992 18.5483 22.016 18.5163 22.048C18.5163 22.08 18.5083 22.12 18.4923 22.168C18.4763 22.2 18.4683 22.232 18.4683 22.264L18.5163 22.312C18.5803 22.312 18.6123 22.296 18.6123 22.264C18.6123 22.232 18.6203 22.2 18.6363 22.168C18.6523 22.12 18.6603 22.08 18.6603 22.048C18.6603 22.032 18.6683 22.016 18.6843 22C18.7003 21.984 18.7083 21.976 18.7083 21.976V22.456C18.7083 22.552 18.7083 22.608 18.7083 22.624C18.7243 22.64 18.7563 22.664 18.8043 22.696C18.7563 22.744 18.7403 22.8 18.7563 22.864C18.7723 22.928 18.7883 22.984 18.8043 23.032H18.7083V23.128C18.7083 23.176 18.7003 23.232 18.6843 23.296C18.6843 23.344 18.6923 23.384 18.7083 23.416C18.6923 23.448 18.6603 23.44 18.6123 23.392C18.5803 23.344 18.5483 23.304 18.5163 23.272C18.5003 23.192 18.4843 23.12 18.4683 23.056C18.4523 22.976 18.4283 22.904 18.3963 22.84H18.2763C18.2763 22.904 18.2843 22.936 18.3003 22.936C18.3003 22.984 18.3163 23.032 18.3483 23.08C18.3803 23.128 18.3963 23.168 18.3963 23.2V23.344V23.584C18.4283 23.584 18.4443 23.592 18.4443 23.608C18.4443 23.624 18.4443 23.632 18.4443 23.632V23.68C18.4443 23.648 18.4363 23.632 18.4203 23.632C18.4043 23.632 18.3963 23.632 18.3963 23.632C18.3483 23.6 18.3003 23.576 18.2523 23.56C18.2203 23.528 18.1723 23.48 18.1083 23.416C18.0923 23.4 18.0603 23.4 18.0123 23.416C17.9803 23.432 17.9483 23.48 17.9163 23.56C17.9163 23.608 17.8923 23.704 17.8443 23.848C17.7643 23.848 17.7243 23.8 17.7243 23.704C17.7243 23.688 17.7163 23.672 17.7003 23.656C17.6843 23.64 17.6763 23.632 17.6763 23.632C17.6283 23.632 17.5883 23.648 17.5563 23.68C17.5243 23.712 17.5083 23.76 17.5083 23.824C17.5243 23.84 17.5403 23.856 17.5563 23.872C17.5723 23.872 17.5883 23.904 17.6043 23.968C17.6043 23.968 17.5963 23.976 17.5803 23.992C17.5643 23.992 17.5403 23.984 17.5083 23.968C17.5083 23.968 17.4923 23.968 17.4603 23.968C17.4443 23.968 17.4363 23.976 17.4363 23.992V24.136C17.4843 24.184 17.5083 24.232 17.5083 24.28C17.4923 24.312 17.4843 24.352 17.4843 24.4C17.5003 24.432 17.5083 24.464 17.5083 24.496H17.4603C17.4443 24.496 17.4363 24.528 17.4363 24.592C17.4363 24.56 17.4203 24.544 17.3883 24.544C17.3723 24.528 17.3643 24.512 17.3643 24.496L17.3163 24.448C17.3163 24.464 17.3083 24.48 17.2923 24.496C17.2923 24.56 17.2763 24.592 17.2443 24.592C17.2443 24.608 17.2363 24.632 17.2203 24.664C17.2203 24.68 17.2203 24.688 17.2203 24.688C17.2043 24.688 17.1803 24.688 17.1483 24.688C17.1163 24.672 17.1003 24.656 17.1003 24.64C17.0363 24.56 16.9723 24.496 16.9083 24.448C16.8603 24.4 16.7963 24.368 16.7163 24.352H16.5963C16.6763 24.24 16.6683 24.152 16.5723 24.088C16.5563 24.04 16.5403 23.992 16.5243 23.944C16.5243 23.896 16.5083 23.864 16.4763 23.848L16.4043 23.776C16.4043 23.792 16.3963 23.808 16.3803 23.824C16.3803 23.84 16.3803 23.864 16.3803 23.896C16.3483 23.864 16.3163 23.896 16.2843 23.992C16.2843 23.912 16.2683 23.856 16.2363 23.824C16.2203 23.776 16.2123 23.728 16.2123 23.68C16.1803 23.648 16.1643 23.584 16.1643 23.488C16.1003 23.424 16.0443 23.392 15.9963 23.392C15.9483 23.392 15.9243 23.36 15.9243 23.296H15.9003C15.9003 23.216 15.8683 23.176 15.8043 23.176C15.7403 23.176 15.6923 23.16 15.6603 23.128C15.6603 23.128 15.6523 23.128 15.6363 23.128C15.6363 23.112 15.6363 23.088 15.6363 23.056H15.6843C15.7163 23.056 15.7563 23.064 15.8043 23.08C15.8523 23.08 15.8923 23.096 15.9243 23.128V23.2C15.9723 23.232 16.0043 23.264 16.0203 23.296V23.2C16.0843 23.2 16.1163 23.152 16.1163 23.056C16.1643 23.04 16.1883 22.984 16.1883 22.888C16.2203 22.824 16.1963 22.76 16.1163 22.696C16.1003 22.664 16.0923 22.624 16.0923 22.576C16.0923 22.528 16.0923 22.488 16.0923 22.456C16.0923 22.376 16.0923 22.304 16.0923 22.24C16.1083 22.176 16.1163 22.088 16.1163 21.976V21.808C16.1803 21.696 16.2283 21.632 16.2603 21.616C16.2923 21.536 16.3323 21.456 16.3803 21.376C16.4283 21.296 16.4603 21.2 16.4763 21.088V20.896C16.5243 20.848 16.5483 20.76 16.5483 20.632C16.5643 20.568 16.5723 20.496 16.5723 20.416C16.5723 20.32 16.5723 20.24 16.5723 20.176V19.96V19.792V19.672C16.6043 19.656 16.6203 19.6 16.6203 19.504C16.5563 19.44 16.5723 19.392 16.6683 19.36C16.7003 19.296 16.6843 19.248 16.6203 19.216C16.6683 19.168 16.6923 19.136 16.6923 19.12C16.7403 18.944 16.7723 18.768 16.7883 18.592V18.424C16.7723 18.36 16.7643 18.304 16.7643 18.256C16.7643 18.208 16.7643 18.152 16.7643 18.088C16.7803 18.04 16.7803 17.992 16.7643 17.944C16.7643 17.896 16.7643 17.864 16.7643 17.848V17.8C16.7963 17.736 16.8043 17.68 16.7883 17.632C16.7723 17.568 16.7643 17.512 16.7643 17.464C16.7643 17.304 16.7563 17.192 16.7403 17.128L16.6923 17.152V17.08V16.744C16.7243 16.712 16.7403 16.68 16.7403 16.648C16.7403 16.616 16.7403 16.592 16.7403 16.576C16.7563 16.512 16.7643 16.464 16.7643 16.432C16.7643 16.384 16.7643 16.352 16.7643 16.336V16.072V15.904V15.784C16.7803 15.736 16.7883 15.648 16.7883 15.52C16.7723 15.504 16.7723 15.472 16.7883 15.424C16.8043 15.376 16.8203 15.344 16.8363 15.328V15.352C16.8363 15.432 16.8443 15.504 16.8603 15.568C16.8763 15.632 16.8683 15.704 16.8363 15.784C16.8203 15.848 16.8123 15.904 16.8123 15.952C16.8283 16 16.8363 16.04 16.8363 16.072C16.8843 16.12 16.9323 16.144 16.9803 16.144C16.9323 16.16 16.9083 16.192 16.9083 16.24C16.9083 16.288 16.9083 16.336 16.9083 16.384C16.9243 16.432 16.9323 16.48 16.9323 16.528C16.9323 16.576 16.9323 16.6 16.9323 16.6V16.648C16.9643 16.664 16.9803 16.696 16.9803 16.744C16.9963 16.792 17.0123 16.832 17.0283 16.864C17.1083 16.832 17.1643 16.688 17.1963 16.432C17.2283 16.176 17.2043 16.008 17.1243 15.928L17.1723 15.856V15.76C17.1243 15.648 17.1243 15.544 17.1723 15.448V15.352C17.1563 15.272 17.1563 15.184 17.1723 15.088C17.1883 14.976 17.2043 14.872 17.2203 14.776C17.2523 14.696 17.2523 14.6 17.2203 14.488C17.2523 14.408 17.2603 14.336 17.2443 14.272C17.2283 14.208 17.2203 14.144 17.2203 14.08C17.2203 13.952 17.1883 13.84 17.1243 13.744C17.1243 13.712 17.1163 13.688 17.1003 13.672C17.1003 13.64 17.1003 13.616 17.1003 13.6C17.1003 13.504 17.0763 13.48 17.0283 13.528C17.0123 13.512 17.0043 13.488 17.0043 13.456C17.0043 13.424 16.9963 13.4 16.9803 13.384C16.9483 13.304 16.9003 13.288 16.8363 13.336C16.8363 13.288 16.8603 13.264 16.9083 13.264C16.9403 13.104 16.9403 12.96 16.9083 12.832C16.9083 12.832 16.9003 12.824 16.8843 12.808C16.8843 12.792 16.8683 12.784 16.8363 12.784V12.736C16.8363 12.592 16.8283 12.456 16.8123 12.328C16.7963 12.2 16.7803 12.072 16.7643 11.944C16.7483 11.704 16.7003 11.472 16.6203 11.248C16.6203 11.168 16.6043 11.104 16.5723 11.056C16.5563 11.008 16.5483 10.952 16.5483 10.888C16.5483 10.888 16.5323 10.872 16.5003 10.84C16.4843 10.808 16.4763 10.776 16.4763 10.744C16.4923 10.744 16.4683 10.696 16.4043 10.6V10.576C16.4683 10.576 16.4843 10.536 16.4523 10.456C16.4363 10.376 16.4123 10.32 16.3803 10.288C16.3643 10.24 16.3483 10.2 16.3323 10.168C16.3003 10.04 16.2523 9.976 16.1883 9.976C16.2043 9.864 16.1883 9.784 16.1403 9.736C16.1083 9.688 16.0843 9.632 16.0683 9.568C16.0363 9.504 16.0203 9.44 16.0203 9.376C15.9883 9.28 15.9563 9.232 15.9243 9.232C15.9243 9.152 15.9003 9.088 15.8523 9.04C15.8043 8.992 15.7803 8.936 15.7803 8.872C15.8283 8.824 15.9163 8.784 16.0443 8.752L16.0683 8.68C16.1003 8.568 16.1483 8.544 16.2123 8.608C16.2443 8.608 16.2763 8.6 16.3083 8.584C16.3403 8.552 16.3643 8.536 16.3803 8.536C16.3643 8.52 16.3563 8.504 16.3563 8.488C16.3563 8.472 16.3563 8.464 16.3563 8.464C16.3243 8.464 16.3083 8.432 16.3083 8.368L16.3563 8.32C16.3883 8.288 16.4123 8.264 16.4283 8.248C16.4443 8.232 16.4603 8.216 16.4763 8.2C16.5243 8.12 16.5563 8.056 16.5723 8.008C16.6043 7.96 16.6443 7.92 16.6923 7.888C16.6923 7.84 16.7163 7.816 16.7643 7.816C16.8283 7.848 16.8763 7.856 16.9083 7.84C16.9563 7.808 17.0123 7.776 17.0763 7.744C17.1083 7.712 17.1403 7.696 17.1723 7.696C17.2043 7.68 17.2283 7.664 17.2443 7.648C17.3723 7.568 17.4763 7.52 17.5563 7.504C17.6043 7.456 17.6443 7.456 17.6763 7.504C17.7083 7.504 17.7243 7.512 17.7243 7.528C17.7403 7.528 17.7643 7.528 17.7963 7.528C17.8443 7.544 17.8843 7.56 17.9163 7.576C17.9643 7.592 18.0203 7.616 18.0843 7.648C18.1803 7.712 18.2603 7.784 18.3243 7.864C18.3883 7.928 18.4523 7.976 18.5163 8.008C18.5963 8.056 18.6363 8.08 18.6363 8.08L18.7323 8.32L18.9243 8.512C18.9563 8.576 19.0043 8.64 19.0683 8.704C19.1323 8.752 19.1803 8.792 19.2123 8.824C19.2283 8.84 19.2443 8.856 19.2603 8.872C19.2763 8.888 19.2923 8.912 19.3083 8.944C19.3243 8.944 19.3483 8.984 19.3803 9.064C19.3803 9.064 19.3803 9.072 19.3803 9.088C19.3963 9.104 19.4123 9.112 19.4283 9.112C19.4603 9.128 19.4843 9.152 19.5003 9.184C19.5163 9.2 19.5243 9.24 19.5243 9.304L19.5723 9.328C19.5883 9.376 19.6043 9.432 19.6203 9.496C19.6363 9.56 19.6523 9.608 19.6683 9.64C19.7003 9.736 19.7323 9.896 19.7643 10.12C19.7643 10.184 19.7643 10.256 19.7643 10.336C19.7803 10.4 19.7963 10.464 19.8123 10.528C19.8123 10.624 19.8123 10.728 19.8123 10.84C19.8123 10.952 19.8203 11.048 19.8363 11.128C19.8363 11.192 19.8363 11.272 19.8363 11.368C19.8363 11.448 19.8283 11.528 19.8123 11.608V12.016C19.8123 12.08 19.8043 12.136 19.7883 12.184C19.7723 12.216 19.7643 12.256 19.7643 12.304C19.7643 12.432 19.7803 12.52 19.8123 12.568C19.8283 12.68 19.8363 12.784 19.8363 12.88C19.8363 12.976 19.8363 13.064 19.8363 13.144C19.8523 13.24 19.8523 13.328 19.8363 13.408C19.8203 13.488 19.8123 13.568 19.8123 13.648C19.8123 13.648 19.8123 13.656 19.8123 13.672C19.8123 13.672 19.7963 13.672 19.7643 13.672L19.6683 14.152C19.6683 14.184 19.6683 14.232 19.6683 14.296C19.6683 14.344 19.6523 14.384 19.6203 14.416H19.7163V14.488H19.6203C19.6523 14.536 19.6603 14.592 19.6443 14.656C19.6283 14.704 19.6523 14.744 19.7163 14.776C19.6683 14.792 19.6283 14.84 19.5963 14.92C19.5963 14.968 19.5883 15.016 19.5723 15.064C19.5563 15.112 19.5563 15.184 19.5723 15.28C19.5723 15.296 19.5803 15.328 19.5963 15.376C19.6283 15.424 19.6683 15.448 19.7163 15.448C19.7483 15.448 19.7803 15.432 19.8123 15.4C19.8603 15.368 19.8923 15.352 19.9083 15.352H20.1243C20.1563 15.336 20.2683 15.328 20.4603 15.328C20.6683 15.312 20.8763 15.296 21.0843 15.28C21.3083 15.264 21.4443 15.248 21.4923 15.232H21.6363C21.7163 15.232 21.7563 15.272 21.7563 15.352C21.7563 15.448 21.7323 15.496 21.6843 15.496C21.4763 15.496 21.3403 15.504 21.2763 15.52C21.2603 15.536 21.1963 15.544 21.0843 15.544C20.9883 15.544 20.7003 15.536 20.2203 15.52C20.2043 15.504 20.1723 15.496 20.1243 15.496L20.0763 15.52C19.9963 15.568 19.9563 15.648 19.9563 15.76L20.0043 15.784C20.0363 15.784 20.1163 15.816 20.2443 15.88C20.3723 15.928 20.6843 15.896 21.1803 15.784C21.2603 15.784 21.3083 15.776 21.3243 15.76C21.4523 15.76 21.5563 15.752 21.6363 15.736C21.7163 15.704 21.8043 15.672 21.9003 15.64C21.9643 15.64 21.9963 15.592 21.9963 15.496L22.0443 15.52C22.0443 15.584 22.0843 15.616 22.1643 15.616C22.2443 15.584 22.3323 15.56 22.4283 15.544C22.5243 15.528 22.6283 15.512 22.7403 15.496C22.7723 15.464 22.7883 15.432 22.7883 15.4C22.8043 15.368 22.8203 15.352 22.8363 15.352C22.8203 15.336 22.7963 15.328 22.7643 15.328C22.7483 15.328 22.7403 15.328 22.7403 15.328C22.7243 15.296 22.7003 15.288 22.6683 15.304C22.6523 15.32 22.6283 15.328 22.5963 15.328C22.5803 15.328 22.5563 15.312 22.5243 15.28C22.5083 15.248 22.4603 15.224 22.3803 15.208C22.3003 15.176 22.2443 15.176 22.2123 15.208C22.1963 15.208 22.1803 15.216 22.1643 15.232C22.1643 15.296 22.1323 15.328 22.0683 15.328C22.0203 15.328 21.9963 15.296 21.9963 15.232C21.9963 15.184 22.0203 15.16 22.0683 15.16C22.1483 15.128 22.2283 15.104 22.3083 15.088C22.4043 15.056 22.4923 15.032 22.5723 15.016C22.6523 15.016 22.7243 15.008 22.7883 14.992C22.8683 14.976 22.9483 14.968 23.0283 14.968C23.0603 14.936 23.1003 14.92 23.1483 14.92C23.1963 14.904 23.2363 14.888 23.2683 14.872C23.3003 14.872 23.3163 14.888 23.3163 14.92C23.3163 14.936 23.3323 14.952 23.3643 14.968C23.3963 14.968 23.4123 14.968 23.4123 14.968C23.4283 14.968 23.4363 14.96 23.4363 14.944C23.4523 14.912 23.4763 14.888 23.5083 14.872L23.5563 14.8C23.5883 14.784 23.6683 14.776 23.7963 14.776L23.7243 14.8C23.7243 14.832 23.7323 14.856 23.7483 14.872C23.7803 14.872 23.7963 14.888 23.7963 14.92C23.8123 14.92 23.8363 14.904 23.8683 14.872C23.9003 14.824 23.9163 14.792 23.9163 14.776C23.9483 14.776 23.9803 14.76 24.0123 14.728C24.0603 14.696 24.1083 14.672 24.1563 14.656V14.704H24.1083C24.1403 14.736 24.1643 14.744 24.1803 14.728C24.1963 14.696 24.2283 14.672 24.2763 14.656C24.2923 14.656 24.3083 14.664 24.3243 14.68C24.3563 14.68 24.3803 14.672 24.3963 14.656C24.4123 14.656 24.4283 14.664 24.4443 14.68C24.4603 14.696 24.4763 14.704 24.4923 14.704C24.4923 14.704 24.4843 14.696 24.4683 14.68C24.4683 14.664 24.4683 14.648 24.4683 14.632H24.8283C24.8603 14.632 24.9003 14.656 24.9483 14.704C24.9963 14.704 25.0203 14.68 25.0203 14.632C25.0043 14.568 25.0123 14.52 25.0443 14.488C25.0923 14.456 25.1403 14.456 25.1883 14.488C25.2683 14.488 25.3163 14.448 25.3323 14.368H25.3563C25.4203 14.352 25.4443 14.296 25.4283 14.2C25.3483 14.152 25.3243 14.112 25.3563 14.08C25.3883 14.08 25.4043 14.064 25.4043 14.032C25.4203 14 25.4283 13.984 25.4283 13.984C25.3803 13.904 25.3563 13.792 25.3563 13.648C25.4203 13.408 25.4523 13.168 25.4523 12.928C25.4523 12.752 25.4203 12.624 25.3563 12.544C25.3563 12.416 25.3563 12.304 25.3563 12.208C25.3563 12.112 25.3483 11.992 25.3323 11.848V11.68V11.608C25.3323 11.352 25.2283 11.24 25.0203 11.272C25.0043 11.272 24.9883 11.272 24.9723 11.272C24.9563 11.256 24.9323 11.248 24.9003 11.248C24.9003 11.216 24.8843 11.2 24.8523 11.2C24.8363 11.2 24.8203 11.216 24.8043 11.248C24.7563 11.248 24.7323 11.208 24.7323 11.128C24.7163 11.08 24.7003 11.024 24.6843 10.96C24.6683 10.896 24.6603 10.824 24.6603 10.744C24.6123 10.728 24.5883 10.704 24.5883 10.672C24.5723 10.672 24.5643 10.68 24.5643 10.696C24.5643 10.712 24.5483 10.72 24.5163 10.72V10.744C24.5003 10.648 24.4923 10.536 24.4923 10.408C24.4763 10.328 24.4523 10.272 24.4203 10.24L24.3963 10.192C24.3963 10.16 24.3963 10.12 24.3963 10.072C24.3963 10.024 24.3803 9.968 24.3483 9.904C24.3483 9.824 24.3403 9.752 24.3243 9.688C24.3243 9.624 24.3083 9.552 24.2763 9.472C24.2283 9.44 24.1963 9.4 24.1803 9.352C24.1803 9.304 24.1723 9.248 24.1563 9.184C24.1723 9.168 24.1883 9.152 24.2043 9.136C24.2203 9.12 24.2523 9.128 24.3003 9.16C24.3003 9.16 24.3083 9.16 24.3243 9.16C24.3563 9.144 24.3803 9.128 24.3963 9.112C24.4123 9.128 24.4283 9.144 24.4443 9.16C24.4603 9.176 24.4763 9.2 24.4923 9.232C24.4923 9.28 24.5163 9.304 24.5643 9.304V9.232C24.5163 9.12 24.5243 9.008 24.5883 8.896C24.6683 8.864 24.7323 8.84 24.7803 8.824C24.8283 8.792 24.8843 8.776 24.9483 8.776C24.9803 8.792 25.0203 8.776 25.0683 8.728C25.1163 8.68 25.1403 8.64 25.1403 8.608C25.1403 8.56 25.1563 8.52 25.1883 8.488C25.2203 8.44 25.2603 8.432 25.3083 8.464C25.3403 8.464 25.3803 8.48 25.4283 8.512C25.4443 8.48 25.4523 8.44 25.4523 8.392C25.4363 8.344 25.4523 8.28 25.5003 8.2L25.5483 8.08C25.5643 8.08 25.5803 8.096 25.5963 8.128C25.6123 8.16 25.6283 8.144 25.6443 8.08C25.6603 8.08 25.6683 8.056 25.6683 8.008H25.8363C25.8683 7.976 25.9163 7.96 25.9803 7.96L26.0043 7.936C26.0043 7.856 26.0523 7.816 26.1483 7.816C26.2123 7.816 26.2603 7.816 26.2923 7.816C26.3403 7.8 26.3803 7.792 26.4123 7.792C26.4443 7.792 26.4603 7.8 26.4603 7.816C26.4603 7.912 26.4843 7.976 26.5323 8.008C26.5963 8.04 26.6443 8.064 26.6763 8.08C26.8203 8.176 26.9803 8.24 27.1563 8.272C27.1883 8.288 27.2123 8.304 27.2283 8.32C27.2443 8.32 27.2683 8.336 27.3003 8.368C27.3323 8.384 27.3483 8.408 27.3483 8.44C27.3643 8.456 27.3803 8.48 27.3963 8.512C27.4283 8.56 27.4523 8.6 27.4683 8.632C27.4843 8.664 27.4923 8.704 27.4923 8.752C27.4923 8.832 27.5083 8.896 27.5403 8.944C27.6203 9.088 27.6523 9.248 27.6363 9.424V9.976C27.6363 10.072 27.6203 10.16 27.5883 10.24C27.5723 10.304 27.5563 10.384 27.5403 10.48C27.5083 10.56 27.5083 10.624 27.5403 10.672C27.5723 10.752 27.5563 10.824 27.4923 10.888C27.4763 10.904 27.4603 10.928 27.4443 10.96C27.4283 10.976 27.4443 10.984 27.4923 10.984C27.5243 10.984 27.5403 11.008 27.5403 11.056C27.5243 11.072 27.5083 11.104 27.4923 11.152C27.4923 11.184 27.4763 11.216 27.4443 11.248C27.3803 11.424 27.3803 11.56 27.4443 11.656L27.4923 11.68C27.4923 11.68 27.5003 11.672 27.5163 11.656C27.5323 11.64 27.5403 11.624 27.5403 11.608C27.5563 11.576 27.5643 11.536 27.5643 11.488C27.5803 11.424 27.6043 11.376 27.6363 11.344C27.6363 11.312 27.6363 11.296 27.6363 11.296C27.6523 11.28 27.6603 11.264 27.6603 11.248C27.6603 11.264 27.6683 11.288 27.6843 11.32C27.7003 11.336 27.7083 11.344 27.7083 11.344C27.6923 11.456 27.6763 11.568 27.6603 11.68C27.6603 11.792 27.6523 11.888 27.6363 11.968C27.6363 12.048 27.6203 12.112 27.5883 12.16C27.5723 12.208 27.5643 12.248 27.5643 12.28V12.64C27.5643 12.704 27.5563 12.776 27.5403 12.856C27.5403 12.92 27.5403 12.984 27.5403 13.048C27.5243 13.128 27.5083 13.208 27.4923 13.288C27.4923 13.352 27.4923 13.432 27.4923 13.528C27.4763 13.592 27.4683 13.656 27.4683 13.72C27.4843 13.784 27.4923 13.848 27.4923 13.912L27.4443 14.104C27.3963 14.248 27.3803 14.384 27.3963 14.512L27.3723 14.584C27.3723 14.632 27.3483 14.656 27.3003 14.656V14.8L27.2283 14.872C27.2923 15.192 27.2923 15.496 27.2283 15.784V16.024C27.2283 16.088 27.2043 16.16 27.1563 16.24V16.336C27.1883 16.384 27.1963 16.424 27.1803 16.456C27.1643 16.472 27.1403 16.512 27.1083 16.576V16.696C27.1083 16.664 27.1003 16.648 27.0843 16.648C27.0843 16.632 27.0843 16.616 27.0843 16.6L27.1083 16.432C27.1083 16.4 27.1003 16.376 27.0843 16.36C27.0843 16.344 27.0843 16.328 27.0843 16.312V16.144C27.1163 16 27.1163 15.856 27.0843 15.712C27.0363 15.68 27.0203 15.648 27.0363 15.616C27.0683 15.568 27.0843 15.528 27.0843 15.496C27.0843 15.416 27.0843 15.36 27.0843 15.328C27.1003 15.28 27.1003 15.24 27.0843 15.208C26.9883 15.16 26.9323 15.12 26.9163 15.088C26.9003 15.088 26.8923 15.104 26.8923 15.136C26.8923 15.152 26.8923 15.16 26.8923 15.16C26.8763 15.192 26.8603 15.24 26.8443 15.304C26.8443 15.352 26.8363 15.416 26.8203 15.496V15.856L26.7483 15.904C26.7803 15.952 26.7883 15.984 26.7723 16C26.7563 16.016 26.7323 16.04 26.7003 16.072V16.24V16.384C26.7003 16.416 26.6923 16.456 26.6763 16.504C26.6763 16.536 26.6763 16.568 26.6763 16.6C26.6763 16.616 26.6763 16.648 26.6763 16.696C26.6763 16.728 26.6523 16.744 26.6043 16.744V16.864C26.6363 16.928 26.6443 17 26.6283 17.08C26.6123 17.144 26.6043 17.216 26.6043 17.296C26.6043 17.392 26.6283 17.448 26.6763 17.464C26.6763 17.496 26.7003 17.512 26.7483 17.512C26.8283 17.56 26.8523 17.64 26.8203 17.752C26.8203 17.8 26.8043 17.84 26.7723 17.872C26.7563 17.888 26.7323 17.928 26.7003 17.992L26.6763 18.016C26.6123 18 26.5483 18.024 26.4843 18.088C26.5483 18.104 26.5723 18.128 26.5563 18.16C26.5403 18.176 26.5163 18.2 26.4843 18.232C26.4683 18.264 26.4603 18.32 26.4603 18.4C26.4763 18.48 26.5083 18.544 26.5563 18.592C26.4763 18.656 26.4523 18.736 26.4843 18.832C26.5323 18.832 26.5563 18.848 26.5563 18.88V19.312C26.5563 19.376 26.5483 19.432 26.5323 19.48C26.5163 19.528 26.5403 19.584 26.6043 19.648V19.864V19.96V20.296C26.6363 20.376 26.6523 20.448 26.6523 20.512C26.6683 20.576 26.6763 20.648 26.6763 20.728C26.6443 20.744 26.6523 20.792 26.7003 20.872C26.7323 20.936 26.7323 20.984 26.7003 21.016C26.6843 21.048 26.6763 21.096 26.6763 21.16H26.6043V21.088L26.5563 21.136C26.5883 21.136 26.6043 21.16 26.6043 21.208C26.6043 21.24 26.6043 21.256 26.6043 21.256C26.6523 21.208 26.6843 21.2 26.7003 21.232C26.7163 21.248 26.7323 21.272 26.7483 21.304H26.8443V21.16V21.088C26.9243 21.136 26.9483 21.248 26.9163 21.424C26.9003 21.424 26.8763 21.392 26.8443 21.328V21.472C26.9243 21.536 26.9643 21.616 26.9643 21.712C26.9803 21.792 26.9883 21.864 26.9883 21.928C26.9883 22.024 27.0043 22.12 27.0363 22.216C27.0683 22.312 27.0843 22.4 27.0843 22.48C27.0843 22.496 27.0683 22.528 27.0363 22.576C27.0043 22.624 26.9723 22.664 26.9403 22.696C26.9243 22.76 26.9403 22.792 26.9883 22.792C27.0523 22.792 27.0923 22.824 27.1083 22.888C27.1403 22.952 27.1403 23 27.1083 23.032C27.0763 23.128 27.0923 23.208 27.1563 23.272C27.1883 23.272 27.2043 23.296 27.2043 23.344C27.2203 23.36 27.2283 23.392 27.2283 23.44C27.2443 23.488 27.2683 23.528 27.3003 23.56H27.3963C27.4283 23.56 27.4523 23.552 27.4683 23.536C27.4843 23.504 27.4923 23.488 27.4923 23.488C27.5243 23.584 27.5483 23.688 27.5643 23.8C27.5803 23.896 27.6043 24.008 27.6363 24.136C27.6523 24.168 27.6683 24.208 27.6843 24.256C27.7003 24.288 27.6923 24.336 27.6603 24.4C27.6603 24.4 27.6603 24.408 27.6603 24.424C27.6603 24.44 27.6523 24.448 27.6363 24.448C27.6363 24.448 27.6203 24.448 27.5883 24.448C27.5723 24.432 27.5643 24.416 27.5643 24.4C27.5483 24.336 27.5323 24.288 27.5163 24.256C27.5163 24.208 27.4763 24.176 27.3963 24.16C27.3803 24.16 27.3563 24.152 27.3243 24.136C27.2923 24.104 27.2523 24.104 27.2043 24.136C27.1723 24.152 27.1563 24.224 27.1563 24.352C27.1563 24.352 27.1643 24.352 27.1803 24.352C27.1963 24.352 27.2043 24.368 27.2043 24.4C27.1723 24.4 27.1403 24.384 27.1083 24.352L27.0843 24.28C26.9723 24.28 26.8923 24.256 26.8443 24.208C26.8443 24.176 26.8123 24.152 26.7483 24.136C26.7163 24.168 26.6923 24.216 26.6763 24.28C26.6763 24.344 26.6763 24.4 26.6763 24.448C26.6763 24.576 26.6363 24.64 26.5563 24.64C26.4603 24.64 26.4363 24.664 26.4843 24.712C26.5163 24.76 26.5563 24.848 26.6043 24.976L26.5563 25C26.5083 24.984 26.4603 24.928 26.4123 24.832H26.2923V25C26.3243 25.048 26.3403 25.104 26.3403 25.168C26.3563 25.232 26.3723 25.288 26.3883 25.336C26.4043 25.384 26.4043 25.416 26.3883 25.432C26.3883 25.448 26.3883 25.472 26.3883 25.504C26.3403 25.472 26.3163 25.424 26.3163 25.36C26.3163 25.312 26.2843 25.304 26.2203 25.336C26.2203 25.416 26.2363 25.472 26.2683 25.504C26.2683 25.552 26.2763 25.592 26.2923 25.624H26.1483H26.1003V25.72C26.1323 25.768 26.1483 25.808 26.1483 25.84C26.1643 25.872 26.1803 25.928 26.1963 26.008ZM15.9963 23.848C15.9483 23.816 15.8923 23.768 15.8283 23.704C15.7803 23.64 15.7323 23.592 15.6843 23.56C15.6363 23.416 15.5963 23.392 15.5643 23.488L15.5403 23.56C15.4603 23.48 15.4123 23.424 15.3963 23.392C15.3963 23.36 15.4043 23.272 15.4203 23.128C15.4363 23.176 15.4603 23.2 15.4923 23.2C15.4443 23.104 15.4203 23.032 15.4203 22.984C15.4363 23.016 15.4523 23.032 15.4683 23.032C15.5003 23.032 15.5243 23.016 15.5403 22.984V23.128C15.5403 23.128 15.5403 23.144 15.5403 23.176C15.5563 23.192 15.5723 23.208 15.5883 23.224C15.6363 23.272 15.6683 23.296 15.6843 23.296C15.7163 23.328 15.7483 23.344 15.7803 23.344C15.8443 23.392 15.8683 23.416 15.8523 23.416C15.8843 23.448 15.9003 23.48 15.9003 23.512C15.9003 23.544 15.9003 23.56 15.9003 23.56C15.9483 23.56 15.9803 23.552 15.9963 23.536C16.0283 23.504 16.0523 23.488 16.0683 23.488C16.0363 23.456 16.0363 23.448 16.0683 23.464C16.1003 23.48 16.1243 23.488 16.1403 23.488C16.1243 23.488 16.1083 23.504 16.0923 23.536C16.0923 23.552 16.0923 23.56 16.0923 23.56C16.0923 23.576 16.0843 23.584 16.0683 23.584C16.0683 23.584 16.0763 23.6 16.0923 23.632C16.0923 23.664 16.1003 23.704 16.1163 23.752C16.1323 23.784 16.1483 23.816 16.1643 23.848H16.0443H15.9963ZM16.5723 24.256L16.5243 24.208C16.5243 24.176 16.5163 24.16 16.5003 24.16C16.4843 24.144 16.4763 24.136 16.4763 24.136C16.5083 24.136 16.5243 24.128 16.5243 24.112C16.5243 24.096 16.5243 24.088 16.5243 24.088C16.5563 24.12 16.5723 24.16 16.5723 24.208V24.256ZM17.7243 24.136C17.7243 24.136 17.7163 24.128 17.7003 24.112C17.6843 24.08 17.6763 24.04 17.6763 23.992C17.7083 23.992 17.7483 23.984 17.7963 23.968L17.8203 24.088V24.136H17.7243ZM18.7803 23.68L18.8043 23.416C18.8043 23.4 18.8043 23.392 18.8043 23.392C18.8203 23.376 18.8283 23.36 18.8283 23.344H18.8763V23.56C18.8763 23.56 18.8683 23.584 18.8523 23.632C18.8363 23.664 18.8123 23.68 18.7803 23.68ZM16.8363 20.368C16.8843 20.32 16.9083 20.256 16.9083 20.176C16.8123 20.24 16.7883 20.304 16.8363 20.368ZM16.3563 17.752C16.3563 17.672 16.3563 17.6 16.3563 17.536C16.3723 17.456 16.3883 17.376 16.4043 17.296C16.4043 17.376 16.4043 17.456 16.4043 17.536C16.4043 17.6 16.3883 17.672 16.3563 17.752ZM16.4763 17.464V17.368C16.4763 17.336 16.4843 17.312 16.5003 17.296C16.5323 17.264 16.5483 17.216 16.5483 17.152C16.5643 17.216 16.5723 17.272 16.5723 17.32C16.5723 17.352 16.5643 17.432 16.5483 17.56C16.5003 17.56 16.4763 17.528 16.4763 17.464ZM19.1883 20.296V19.96C19.1883 19.912 19.2123 19.864 19.2603 19.816C19.3243 19.768 19.3723 19.736 19.4043 19.72C19.3883 19.736 19.3723 19.752 19.3563 19.768C19.3563 19.784 19.3563 19.792 19.3563 19.792C19.2923 19.824 19.2523 19.872 19.2363 19.936C19.2363 20 19.2363 20.056 19.2363 20.104C19.2363 20.136 19.2283 20.168 19.2123 20.2C19.1963 20.232 19.1883 20.264 19.1883 20.296ZM24.3483 24.4C24.3003 24.4 24.2763 24.352 24.2763 24.256C24.2923 24.272 24.3003 24.296 24.3003 24.328C24.3163 24.36 24.3483 24.368 24.3963 24.352H24.4203C24.4043 24.368 24.3883 24.384 24.3723 24.4C24.3563 24.4 24.3483 24.4 24.3483 24.4ZM16.6203 16.144C16.6203 16.064 16.6203 15.992 16.6203 15.928C16.6363 15.848 16.6523 15.776 16.6683 15.712C16.6683 15.648 16.6763 15.584 16.6923 15.52V15.448C16.6923 15.368 16.7083 15.312 16.7403 15.28C16.7563 15.392 16.7483 15.544 16.7163 15.736C16.6843 15.928 16.6523 16.064 16.6203 16.144ZM16.8363 15.232C16.8043 15.152 16.7963 15.072 16.8123 14.992C16.8443 14.912 16.8763 14.816 16.9083 14.704C16.9883 14.8 16.9883 14.904 16.9083 15.016C16.8763 15.016 16.8523 15.024 16.8363 15.04C16.8363 15.056 16.8363 15.064 16.8363 15.064V15.232ZM26.9403 24.76C26.9243 24.728 26.9003 24.704 26.8683 24.688C26.8523 24.672 26.8363 24.656 26.8203 24.64L26.8443 24.592C26.8763 24.608 26.8923 24.632 26.8923 24.664C26.9083 24.68 26.9243 24.696 26.9403 24.712V24.76ZM27.5403 23.416C27.4763 23.384 27.4443 23.36 27.4443 23.344C27.4283 23.264 27.4123 23.176 27.3963 23.08C27.3803 22.984 27.3483 22.888 27.3003 22.792V22.408C27.3003 22.36 27.2843 22.304 27.2523 22.24C27.2363 22.176 27.2203 22.112 27.2043 22.048V21.976C27.2043 21.944 27.2043 21.896 27.2043 21.832C27.2043 21.752 27.1883 21.68 27.1563 21.616C27.1563 21.584 27.1643 21.56 27.1803 21.544C27.1963 21.512 27.2043 21.488 27.2043 21.472C27.2043 21.376 27.1883 21.32 27.1563 21.304C27.1883 21.32 27.2123 21.36 27.2283 21.424C27.2603 21.472 27.2603 21.52 27.2283 21.568V21.616C27.3083 21.68 27.3483 21.752 27.3483 21.832C27.3643 21.912 27.3723 21.984 27.3723 22.048C27.3723 22.176 27.3963 22.312 27.4443 22.456V22.528C27.4283 22.608 27.4283 22.672 27.4443 22.72C27.4763 22.768 27.4923 22.808 27.4923 22.84C27.4923 22.904 27.5003 22.968 27.5163 23.032C27.5323 23.08 27.5403 23.144 27.5403 23.224V23.344V23.416ZM26.2683 21.16C26.2843 21.16 26.2923 21.16 26.2923 21.16C26.3083 21.144 26.3243 21.136 26.3403 21.136V21.016L26.2683 20.896C26.2683 20.912 26.2523 20.928 26.2203 20.944C26.2043 20.96 26.1963 20.984 26.1963 21.016V21.088V21.136L26.2683 21.16ZM21.5643 15.64C21.5643 15.624 21.5483 15.616 21.5163 15.616C21.5003 15.6 21.4763 15.584 21.4443 15.568C21.4763 15.568 21.4923 15.552 21.4923 15.52C21.5403 15.552 21.5723 15.584 21.5883 15.616C21.5883 15.616 21.5883 15.624 21.5883 15.64C21.5883 15.64 21.5803 15.64 21.5643 15.64ZM26.0763 20.896C26.1243 20.88 26.1963 20.824 26.2923 20.728C26.3563 20.616 26.3563 20.528 26.2923 20.464C26.2923 20.448 26.2603 20.416 26.1963 20.368V20.512H26.1483C26.1163 20.432 26.0923 20.36 26.0763 20.296C26.0763 20.232 26.0763 20.168 26.0763 20.104C26.0763 20.008 26.0443 19.952 25.9803 19.936H25.9323C25.9323 19.888 25.9163 19.84 25.8843 19.792C25.9323 19.76 25.9723 19.728 26.0043 19.696C26.0363 19.648 26.0363 19.592 26.0043 19.528C25.9883 19.448 25.9883 19.352 26.0043 19.24C26.0523 19.224 26.0763 19.2 26.0763 19.168L25.9803 19.096C25.9803 19.096 25.9723 19.104 25.9563 19.12C25.9403 19.12 25.9323 19.136 25.9323 19.168C25.9323 19.2 25.9323 19.24 25.9323 19.288C25.9323 19.32 25.9163 19.376 25.8843 19.456C25.8523 19.424 25.8363 19.392 25.8363 19.36C25.8363 19.312 25.8363 19.272 25.8363 19.24C25.8363 19.224 25.8283 19.216 25.8123 19.216C25.8123 19.2 25.8123 19.184 25.8123 19.168C25.8123 19.184 25.7963 19.2 25.7643 19.216C25.7483 19.216 25.7403 19.216 25.7403 19.216C25.7403 19.296 25.7323 19.384 25.7163 19.48C25.7163 19.576 25.7003 19.656 25.6683 19.72V20.08C25.6683 20.128 25.6763 20.168 25.6923 20.2C25.7243 20.216 25.7403 20.232 25.7403 20.248C25.7723 20.264 25.7883 20.288 25.7883 20.32C25.8043 20.352 25.8203 20.384 25.8363 20.416L25.8843 20.464L25.9323 20.416V20.08C25.9963 20.112 26.0123 20.184 25.9803 20.296C25.9643 20.408 25.9563 20.504 25.9563 20.584C25.9723 20.664 25.9803 20.76 25.9803 20.872C25.9803 20.936 26.0123 20.944 26.0763 20.896ZM26.2683 20.296C26.2843 20.264 26.2923 20.248 26.2923 20.248C26.2923 20.232 26.2923 20.224 26.2923 20.224C26.2923 20.192 26.2843 20.168 26.2683 20.152C26.2683 20.12 26.2683 20.096 26.2683 20.08C26.2683 20.096 26.2523 20.12 26.2203 20.152C26.2043 20.168 26.1963 20.176 26.1963 20.176C26.1963 20.192 26.2043 20.208 26.2203 20.224C26.2523 20.24 26.2683 20.264 26.2683 20.296ZM27.1563 21.04C27.1563 20.896 27.1403 20.808 27.1083 20.776C27.1083 20.76 27.1163 20.752 27.1323 20.752C27.1483 20.752 27.1563 20.752 27.1563 20.752C27.1883 20.784 27.1963 20.824 27.1803 20.872C27.1643 20.904 27.1563 20.96 27.1563 21.04ZM17.1003 16.024C17.1163 16.008 17.1243 15.992 17.1243 15.976V16.072C17.1243 16.072 17.1163 16.072 17.1003 16.072C17.1003 16.056 17.1003 16.04 17.1003 16.024ZM26.8203 20.656V20.584C26.7723 20.552 26.7483 20.512 26.7483 20.464C26.7163 20.4 26.7163 20.328 26.7483 20.248C26.8283 20.376 26.8523 20.512 26.8203 20.656ZM26.4123 20.728C26.5083 20.728 26.5563 20.696 26.5563 20.632C26.5563 20.52 26.5323 20.432 26.4843 20.368C26.4843 20.288 26.4763 20.216 26.4603 20.152C26.4603 20.072 26.4603 20 26.4603 19.936C26.4603 19.792 26.4443 19.696 26.4123 19.648V19.504C26.4123 19.472 26.4203 19.44 26.4363 19.408C26.4523 19.36 26.4443 19.304 26.4123 19.24V19.048C26.3643 18.92 26.3643 18.824 26.4123 18.76C26.4123 18.68 26.3883 18.624 26.3403 18.592C26.3563 18.592 26.3643 18.576 26.3643 18.544C26.3483 18.544 26.3403 18.504 26.3403 18.424H26.2923C26.2763 18.456 26.2683 18.488 26.2683 18.52C26.2683 18.536 26.2683 18.544 26.2683 18.544C26.2843 18.608 26.2763 18.672 26.2443 18.736C26.2283 18.8 26.2363 18.848 26.2683 18.88V19.12V19.216C26.2683 19.264 26.2603 19.304 26.2443 19.336C26.2283 19.352 26.2363 19.368 26.2683 19.384V19.504C26.2043 19.552 26.1803 19.584 26.1963 19.6C26.2123 19.6 26.2443 19.616 26.2923 19.648C26.2923 19.696 26.2843 19.736 26.2683 19.768H26.1483C26.1803 19.784 26.1963 19.808 26.1963 19.84C26.2123 19.872 26.2363 19.904 26.2683 19.936C26.2683 19.888 26.2923 19.864 26.3403 19.864C26.3243 19.928 26.3163 19.992 26.3163 20.056C26.3323 20.104 26.3403 20.168 26.3403 20.248C26.3403 20.328 26.3403 20.4 26.3403 20.464C26.3563 20.512 26.3643 20.568 26.3643 20.632C26.3643 20.696 26.3803 20.728 26.4123 20.728ZM26.7483 20.224C26.7483 20.192 26.7403 20.16 26.7243 20.128C26.7083 20.08 26.7003 20.04 26.7003 20.008C26.7003 19.976 26.7003 19.928 26.7003 19.864C26.7003 19.784 26.6923 19.736 26.6763 19.72C26.6443 19.688 26.6283 19.648 26.6283 19.6C26.6283 19.552 26.6443 19.52 26.6763 19.504C26.6763 19.488 26.7003 19.448 26.7483 19.384V19.936C26.7483 19.952 26.7563 19.976 26.7723 20.008C26.8043 20.024 26.8203 20.048 26.8203 20.08C26.8523 20.112 26.8283 20.16 26.7483 20.224ZM23.0283 15.352L23.1483 15.328H23.2203C23.2683 15.296 23.3243 15.264 23.3883 15.232C23.4523 15.2 23.5243 15.176 23.6043 15.16C23.6043 15.16 23.6043 15.144 23.6043 15.112C23.6043 15.08 23.5963 15.064 23.5803 15.064H23.5083C23.4603 15.08 23.4123 15.096 23.3643 15.112C23.3163 15.128 23.2683 15.112 23.2203 15.064C23.2043 15.064 23.1963 15.056 23.1963 15.04C23.1963 15.024 23.1803 15.032 23.1483 15.064C23.0843 15.064 23.0203 15.096 22.9563 15.16C22.9403 15.16 22.9243 15.184 22.9083 15.232C22.8923 15.264 22.8923 15.296 22.9083 15.328C22.9083 15.344 22.9483 15.352 23.0283 15.352ZM26.7003 18.64V18.592V18.424C26.7003 18.456 26.7083 18.488 26.7243 18.52C26.7403 18.536 26.7483 18.56 26.7483 18.592C26.7483 18.592 26.7483 18.6 26.7483 18.616C26.7483 18.632 26.7323 18.64 26.7003 18.64ZM23.9163 15.088C23.9323 15.088 23.9483 15.088 23.9643 15.088C23.9963 15.072 24.0203 15.064 24.0363 15.064C24.0363 15.064 24.0443 15.056 24.0603 15.04C24.0763 15.024 24.0923 15.016 24.1083 15.016C24.0763 14.984 24.0523 14.968 24.0363 14.968C24.0363 14.936 24.0283 14.92 24.0123 14.92C23.9963 14.92 23.9883 14.92 23.9883 14.92C23.9723 14.936 23.9563 14.952 23.9403 14.968C23.9243 14.968 23.9003 14.984 23.8683 15.016C23.8523 15.016 23.8363 15.024 23.8203 15.04C23.8203 15.056 23.8203 15.064 23.8203 15.064C23.8203 15.064 23.8283 15.072 23.8443 15.088C23.8763 15.088 23.9003 15.088 23.9163 15.088ZM24.2043 15.064C24.3163 15.064 24.4123 15.056 24.4923 15.04C24.5883 15.024 24.6843 15.016 24.7803 15.016V14.968C24.7643 14.968 24.7483 14.96 24.7323 14.944C24.7163 14.928 24.6923 14.92 24.6603 14.92C24.6123 14.92 24.5643 14.928 24.5163 14.944C24.4843 14.944 24.4523 14.92 24.4203 14.872H24.3963C24.3643 14.904 24.3003 14.952 24.2043 15.016V15.064ZM26.2923 16.696C26.3403 16.696 26.3643 16.656 26.3643 16.576L26.3403 16.384C26.3403 16.352 26.3323 16.328 26.3163 16.312C26.3003 16.296 26.2843 16.272 26.2683 16.24H26.1963V16.456V16.6C26.1963 16.664 26.2283 16.696 26.2923 16.696ZM17.8203 24.136C17.8203 24.136 17.8283 24.128 17.8443 24.112C17.8603 24.096 17.8763 24.088 17.8923 24.088L17.8443 24.136H17.8203Z" fill="#E2E2E2"/>
</svg>
